<svg xmlns="http://www.w3.org/2000/svg" width="34" height="33.093" viewBox="0 0 34 33.093"><defs><style>.a{fill:none;}</style></defs><title>bike-shed--large</title><path class="a" d="M5.5,27h0a.5.5,0,0,1-.207-.049l-.014,0A.4.4,0,0,1,5.22,26.9a.5.5,0,0,1-.085-.066.474.474,0,0,1-.053-.079.481.481,0,0,1-.047-.083.474.474,0,0,1-.021-.106A.5.5,0,0,1,5,26.5l0-.015a.487.487,0,0,1,.02-.1.5.5,0,0,1,.026-.1l0-.015,1.88-3.76A4.245,4.245,0,1,0,9.7,27Z"/><path class="a" d="M9.7,26a4.239,4.239,0,0,0-1.867-3.046L6.309,26Z"/><path d="M0,.012.012,2.956,21.269,4.913a7.517,7.517,0,0,1,6.621,6.316l1.47,9.87c-.008.007-.018.009-.025.017L18.209,32.24a.5.5,0,0,0,.708.707L29.542,22.322,31.131,33H34L33.988,0ZM33,32H31.994L28.879,11.078a8.521,8.521,0,0,0-7.511-7.161L1.02,2.044,1.032.968,33.063.937Z"/><path d="M21.5,21.25a5.2,5.2,0,0,0-1.4.214L16.967,13.32A.5.5,0,0,0,16.5,13h-3a.5.5,0,0,0,0,1h2.657l1.923,5H8.691L7.384,21.614A5.2,5.2,0,0,0,5.5,21.25a5.25,5.25,0,1,0,5.2,5.7.591.591,0,0,0,.052-.035.44.44,0,0,0,.08-.049l5.5-5a.5.5,0,1,0-.673-.741l-5,4.543a5.234,5.234,0,0,0-2.389-3.61L9.309,20h9.155l.7,1.823a5.212,5.212,0,0,0-.722,8.927l.681-.728a4.228,4.228,0,0,1,.4-7.263l1.508,3.92A.5.5,0,0,0,21.5,27a.516.516,0,0,0,.18-.033.5.5,0,0,0,.287-.646L20.457,22.4a4.181,4.181,0,0,1,1.043-.145,4.228,4.228,0,0,1,3.343,1.657l.685-.733A5.214,5.214,0,0,0,21.5,21.25Zm-16,9.5a4.25,4.25,0,1,1,1.433-8.234l-1.88,3.76,0,.015a.5.5,0,0,0-.026.1.487.487,0,0,0-.02.1L5,26.5a.542.542,0,0,0,.014.07.474.474,0,0,0,.021.106.454.454,0,0,0,.047.083.519.519,0,0,0,.053.079.5.5,0,0,0,.085.066.471.471,0,0,0,.056.044l.014,0A.492.492,0,0,0,5.5,27H9.7A4.241,4.241,0,0,1,5.5,30.75ZM9.7,26H6.309l1.523-3.046A4.236,4.236,0,0,1,9.7,26Z"/><path d="M11,17a.5.5,0,1,0,0-1H8.5a.5.5,0,1,0,0,1Z"/></svg>