<svg xmlns="http://www.w3.org/2000/svg" width="46" height="33.5" viewBox="0 0 46 33.5"><defs><style>.a{fill:none;}</style></defs><title>bike-shed-year--large</title><path class="a" d="M13,1.978l20.33,1.73a8.582,8.582,0,0,1,7.534,7.243L43.948,32H45V1H13Z"/><path class="a" d="M21.737,26.026a4.2,4.2,0,0,0-1.208-2.5,4.331,4.331,0,0,0-.673-.542l-1.511,3.057Z"/><polygon class="a" points="7.178 5 7.631 4 2.4 4 2.83 5 7.178 5"/><path class="a" d="M17.541,27.045h-.006a.5.5,0,0,1-.2-.048l-.013,0a.412.412,0,0,1-.057-.044.494.494,0,0,1-.084-.065.525.525,0,0,1-.054-.079.512.512,0,0,1-.047-.082.539.539,0,0,1-.022-.106.422.422,0,0,1-.014-.069l0-.015a.6.6,0,0,1,.019-.1.6.6,0,0,1,.025-.095l0-.015,1.864-3.772a4.24,4.24,0,0,0-1.415-.257h-.02a4.25,4.25,0,1,0,3.04,7.241,4.2,4.2,0,0,0,1.184-2.511Z"/><path d="M12,0V2.9L33.237,4.7a7.576,7.576,0,0,1,6.638,6.4l1.459,9.96L30.275,32.226a.5.5,0,1,0,.71.7L41.516,22.3,43.083,33H46V0ZM45,32H43.948L40.864,10.951A8.582,8.582,0,0,0,33.33,3.708L13,1.978V1H45Z"/><path d="M33.539,21.221h-.025a5.147,5.147,0,0,0-1.4.221l-3.17-8.129a.5.5,0,0,0-.466-.318h0l-3,.014a.5.5,0,0,0,0,1h0L28.137,14l1.946,4.991-9.389.044L19.4,21.647a5.223,5.223,0,0,0-1.862-.351h-.025a5.25,5.25,0,0,0,.024,10.5h.025a5.2,5.2,0,0,0,5.183-4.821.4.4,0,0,0,.054-.037.5.5,0,0,0,.076-.047l5.477-5.025a.5.5,0,1,0-.676-.736L22.7,25.694a5.084,5.084,0,0,0-2.406-3.6l1.02-2.064,9.155-.043.709,1.819a5.213,5.213,0,0,0-.681,8.932l.678-.731a4.205,4.205,0,0,1,.368-7.268l1.527,3.915a.5.5,0,0,0,.466.318.506.506,0,0,0,.182-.034.5.5,0,0,0,.284-.647l-1.528-3.919a4.215,4.215,0,0,1,1.042-.149h.02a4.228,4.228,0,0,1,3.331,1.642l.682-.736A5.217,5.217,0,0,0,33.539,21.221ZM20.558,29.537a4.25,4.25,0,1,1-3.04-7.241h.02a4.211,4.211,0,0,1,1.415.257l-1.864,3.772,0,.015a.443.443,0,0,0-.025.095.423.423,0,0,0-.019.1l0,.015a.5.5,0,0,0,.014.069.476.476,0,0,0,.022.106.446.446,0,0,0,.047.082.425.425,0,0,0,.054.079.524.524,0,0,0,.084.065.481.481,0,0,0,.057.044l.013,0a.5.5,0,0,0,.205.048h0l4.2-.02A4.184,4.184,0,0,1,20.558,29.537Zm-.028-6.011a4.207,4.207,0,0,1,1.208,2.5l-3.392.016,1.511-3.057A4.331,4.331,0,0,1,20.53,23.526Z"/><path d="M20.495,17.032l2.5-.012a.5.5,0,0,0,0-1h0l-2.5.012a.5.5,0,0,0,0,1Z"/><path d="M6.542,10.958a.5.5,0,0,0,0,1A2.3,2.3,0,0,1,9,14v7a.5.5,0,1,0,1,0V14A3.274,3.274,0,0,0,6.542,10.958Z"/><path d="M.5,21.5A.5.5,0,0,0,1,21V14a2.317,2.317,0,0,1,2.5-2.021.5.5,0,0,0,0-1C1.817,10.979,0,12.134,0,14v7A.5.5,0,0,0,.5,21.5Z"/><path d="M7.5,33.5A.5.5,0,0,0,8,33V21H7V33A.5.5,0,0,0,7.5,33.5Z"/><path d="M2.5,33.5A.5.5,0,0,0,3,33V21H2V33A.5.5,0,0,0,2.5,33.5Z"/><path d="M8.031,7h-1A2.031,2.031,0,1,1,2.969,7h-1A3.031,3.031,0,1,0,8.031,7Z"/><path d="M7.822,6,9.181,3H.881L2.17,6ZM7.631,4,7.178,5H2.83L2.4,4Z"/><path d="M6.646,13.646,2.115,18.177a.5.5,0,0,0,.708.707l4.531-4.531a.5.5,0,0,0-.708-.707Z"/></svg>