<svg xmlns="http://www.w3.org/2000/svg" width="46.368" height="47.4" viewBox="0 0 46.368 47.4"><defs><style>.a{fill:none;}</style></defs><title>calendar-2-selected-discount--large</title><circle class="a" cx="33.356" cy="7.813" r="0.941"/><rect class="a" x="8" y="23.4" width="2" height="2"/><path class="a" d="M44.059,7.45l.046-1.707-1.522-.812L42.036,3.31l-1.712-.252L39.247,1.719l-1.7.343L36.07,1.168l-1.479.894-1.7-.343L31.815,3.058,30.1,3.31l-.547,1.622-1.521.812.046,1.707L26.934,8.725l.638,1.587L26.941,11.9l1.146,1.276-.046,1.707,1.522.811.547,1.621,1.712.252,1.077,1.34,1.7-.343,1.479.894,1.478-.9,1.7.346,1.076-1.341,1.712-.251.547-1.621,1.523-.812-.047-1.706L45.2,11.9l-.64-1.587.64-1.587Zm-9.291.363A1.412,1.412,0,1,1,33.356,6.4,1.412,1.412,0,0,1,34.768,7.813ZM32.581,14.1a.235.235,0,1,1-.332-.333h0l7.059-7.059a.235.235,0,0,1,.333.333Zm5.951.3a1.412,1.412,0,1,1,1.412-1.412h0A1.413,1.413,0,0,1,38.532,14.4Z"/><rect class="a" x="23" y="30.4" width="2" height="2"/><circle class="a" cx="38.532" cy="12.989" r="0.941"/><path d="M42,20.571V46.4H2v1H43V19.956A11.206,11.206,0,0,1,42,20.571Z"/><rect x="8" y="16.4" width="2" height="2"/><rect x="16" y="16.4" width="2" height="2"/><rect x="23" y="16.4" width="2" height="2"/><rect x="16" y="23.4" width="2" height="2"/><rect x="23" y="23.4" width="2" height="2"/><rect x="31" y="23.4" width="2" height="2"/><rect x="8" y="30.4" width="2" height="2"/><rect x="16" y="30.4" width="2" height="2"/><rect x="31" y="30.4" width="2" height="2"/><rect x="8" y="37.4" width="2" height="2"/><rect x="16" y="37.4" width="2" height="2"/><rect x="23" y="37.4" width="2" height="2"/><path d="M12,21.4H6v6h6Zm-2,4H8v-2h2Z"/><path d="M27,28.4H21v6h6Zm-2,4H23v-2h2Z"/><path d="M8,5.4v3H0v37H41V21.057q-.489.21-1,.379V44.4H1V9.4H8v2a1,1,0,0,0,2,0v-2H24.479c.026-.338.06-.671.112-1H10v-3a1,1,0,0,0-2,0Z"/><path d="M45.644,10.312l.722-1.792-1.3-1.441.052-1.928L43.4,4.236,42.785,2.41l-1.931-.283L39.642.618l-1.911.388L36.074,0,34.412,1,32.5.618,31.289,2.127l-1.932.283-.615,1.827-1.717.915.052,1.928-1.3,1.44.72,1.792-.72,1.793,1.3,1.442-.052,1.928,1.718.914.615,1.826,1.931.283,1.212,1.51,1.91-.388,1.662,1,1.661-1.006L39.645,20l1.211-1.5,1.931-.282.615-1.826,1.72-.915-.054-1.927,1.3-1.443ZM45.205,11.9l-1.146,1.277.047,1.706-1.523.812-.547,1.621-1.712.251-1.076,1.341-1.7-.346-1.478.9-1.47-.9-1.7.343-1.077-1.34-1.712-.252-.547-1.621-1.522-.811.046-1.707L26.941,11.9l.638-1.588-.638-1.587,1.146-1.274-.046-1.707,1.521-.812.547-1.622,1.713-.252L32.9,1.719l1.7.343,1.479-.894,1.477.894,1.7-.343,1.077,1.339,1.712.252.547,1.621,1.522.812L44.068,7.45,45.2,8.725l-.64,1.587Z"/><path d="M31.944,7.813A1.412,1.412,0,1,0,33.356,6.4,1.412,1.412,0,0,0,31.944,7.813Zm2.353,0a.941.941,0,1,1-.941-.941h0a.942.942,0,0,1,.944.94h0Z"/><path d="M38.532,11.577a1.412,1.412,0,1,0,1.412,1.412h0A1.413,1.413,0,0,0,38.532,11.577Zm0,2.353a.941.941,0,1,1,.941-.941h0A.942.942,0,0,1,38.532,13.93Z"/><path d="M39.64,7.038a.235.235,0,0,0-.333-.333l-7.059,7.059a.235.235,0,1,0,.332.333Z"/></svg>