<svg xmlns="http://www.w3.org/2000/svg" width="41" height="41" viewBox="0 0 41 41"><defs><style>.a{fill:none;}</style></defs><title>clock--large</title><path class="a" d="M21,1.025V19.293l1.646-1.646a.5.5,0,0,1,.707.707L21.707,20H33a.5.5,0,1,1,0,1H21v3a.5.5,0,0,1-1,0V21.707l-6.35,6.35A2.227,2.227,0,0,1,14,29.25a2.241,2.241,0,0,1-3.443,1.9L9.116,32.591a.5.5,0,0,1-.708-.707l1.441-1.441A2.227,2.227,0,0,1,9.5,29.25,2.253,2.253,0,0,1,11.749,27a2.227,2.227,0,0,1,1.193.35L19.292,21H18a.5.5,0,1,1,0-1h2V1.025a19.5,19.5,0,1,0,1,0Zm8.683,4.57-1,1.731a.5.5,0,0,1-.433.25A.494.494,0,0,1,28,7.509a.5.5,0,0,1-.183-.683l1-1.731a.5.5,0,0,1,.866.5ZM11.5,4.912a.5.5,0,0,1,.683.183l1,1.731a.5.5,0,1,1-.866.5l-1-1.731A.5.5,0,0,1,11.5,4.912ZM2.5,20.5A.5.5,0,0,1,3,20H5a.5.5,0,1,1,0,1H3A.5.5,0,0,1,2.5,20.5Zm4.826,8.183-1.731,1a.494.494,0,0,1-.25.067.5.5,0,0,1-.25-.933l1.731-1a.5.5,0,1,1,.5.866ZM7.509,13a.5.5,0,0,1-.433.25.494.494,0,0,1-.25-.067l-1.731-1a.5.5,0,1,1,.5-.866l1.731,1A.5.5,0,0,1,7.509,13Zm5.674,21.174-1,1.731a.5.5,0,0,1-.433.25.494.494,0,0,1-.25-.067.5.5,0,0,1-.183-.683l1-1.731a.5.5,0,0,1,.866.5ZM21,38a.5.5,0,0,1-1,0V36a.5.5,0,0,1,1,0Zm8.5-1.912a.494.494,0,0,1-.25.067.5.5,0,0,1-.433-.25l-1-1.731a.5.5,0,0,1,.866-.5l1,1.731A.5.5,0,0,1,29.5,36.088ZM33.491,13a.5.5,0,0,1,.183-.683l1.731-1a.5.5,0,1,1,.5.866l-1.731,1a.494.494,0,0,1-.25.067A.5.5,0,0,1,33.491,13Zm2.6,16.5a.5.5,0,0,1-.433.25.494.494,0,0,1-.25-.067l-1.731-1a.5.5,0,1,1,.5-.866l1.731,1A.5.5,0,0,1,36.088,29.5ZM38,21H36a.5.5,0,1,1,0-1h2a.5.5,0,1,1,0,1Z"/><circle class="a" cx="11.75" cy="29.25" r="1.25"/><path d="M20.5,35.5a.5.5,0,0,0-.5.5v2a.5.5,0,0,0,1,0V36A.5.5,0,0,0,20.5,35.5Z"/><path d="M5.5,20.5A.5.5,0,0,0,5,20H3a.5.5,0,1,0,0,1H5A.5.5,0,0,0,5.5,20.5Z"/><path d="M38,20H36a.5.5,0,1,0,0,1h2a.5.5,0,1,0,0-1Z"/><path d="M7.326,12.317l-1.731-1a.5.5,0,1,0-.5.866l1.731,1a.494.494,0,0,0,.25.067.5.5,0,0,0,.25-.933Z"/><path d="M35.905,28.817l-1.731-1a.5.5,0,1,0-.5.866l1.731,1a.494.494,0,0,0,.25.067.5.5,0,0,0,.25-.933Z"/><path d="M12.317,7.326a.5.5,0,0,0,.433.25A.494.494,0,0,0,13,7.509a.5.5,0,0,0,.183-.683l-1-1.731a.5.5,0,0,0-.866.5Z"/><path d="M28.683,33.674a.5.5,0,0,0-.866.5l1,1.731a.5.5,0,0,0,.433.25.494.494,0,0,0,.25-.067.5.5,0,0,0,.183-.683Z"/><path d="M6.826,27.817l-1.731,1a.5.5,0,0,0,.25.933.494.494,0,0,0,.25-.067l1.731-1a.5.5,0,1,0-.5-.866Z"/><path d="M34.174,13.183l1.731-1a.5.5,0,1,0-.5-.866l-1.731,1a.5.5,0,0,0,.25.933A.494.494,0,0,0,34.174,13.183Z"/><path d="M13,33.491a.5.5,0,0,0-.683.183l-1,1.731a.5.5,0,1,0,.866.5l1-1.731A.5.5,0,0,0,13,33.491Z"/><path d="M29.5,4.912a.5.5,0,0,0-.683.183l-1,1.731a.5.5,0,1,0,.866.5l1-1.731A.5.5,0,0,0,29.5,4.912Z"/><path d="M20.5,0A20.5,20.5,0,1,0,41,20.5,20.523,20.523,0,0,0,20.5,0Zm0,40A19.491,19.491,0,0,1,20,1.025V20H18a.5.5,0,1,0,0,1h1.293l-6.35,6.35A2.227,2.227,0,0,0,11.75,27a2.241,2.241,0,0,0-1.9,3.443L8.409,31.884a.5.5,0,0,0,.708.707l1.441-1.441a2.227,2.227,0,0,0,1.193.35A2.253,2.253,0,0,0,14,29.25a2.227,2.227,0,0,0-.35-1.193L20,21.707V24a.5.5,0,1,0,1,0V21H33a.5.5,0,1,0,0-1H21.707l1.646-1.646a.5.5,0,0,0-.707-.707L21,19.293V1.025A19.491,19.491,0,0,1,20.5,40Zm-10-10.75a1.25,1.25,0,1,1,1.25,1.25A1.252,1.252,0,0,1,10.5,29.25Z"/></svg>