<svg xmlns="http://www.w3.org/2000/svg" width="43" height="43" viewBox="0 0 43 43"><defs><style>.a{fill:none;}</style></defs><title>counter--large</title><path class="a" d="M37.16,8.382A3.378,3.378,0,0,0,38.313,3.74h0A3.407,3.407,0,0,0,35.39,2.085a3.377,3.377,0,0,0-2.883,5.121A3.405,3.405,0,0,0,37.16,8.382Z"/><rect class="a" x="10" y="1" width="7" height="2"/><path class="a" d="M14.3,28.594l-1.469-1.475A.388.388,0,0,0,12.556,27H10.029l-1,1h2.689a1.385,1.385,0,0,1,.978.4l1.471,1.476a.4.4,0,0,0,.278.126h2.527l1-1H15.28A1.392,1.392,0,0,1,14.3,28.594Z"/><path d="M35.434,9.857a4.371,4.371,0,0,0,3.735-6.632A4.4,4.4,0,0,0,33.152,1.7a4.381,4.381,0,0,0-1.5,6.018A4.415,4.415,0,0,0,35.434,9.857ZM32.125,4.634A3.372,3.372,0,0,1,35.39,2.085a3.407,3.407,0,0,1,2.923,1.654h0A3.378,3.378,0,0,1,37.16,8.382a3.4,3.4,0,0,1-5.035-3.748Z"/><path d="M38.854,12H38a.5.5,0,1,0,0,1h.854A3.156,3.156,0,0,1,42,16V27a.5.5,0,1,0,1,0V16A4.182,4.182,0,0,0,38.854,12Z"/><path d="M33,13a.5.5,0,0,0,0-1H31.94A3.975,3.975,0,0,0,28,16V27a.5.5,0,0,0,1,0V16a2.974,2.974,0,0,1,2.94-3Z"/><path d="M39.5,42.5A.5.5,0,0,0,40,42V27H39V42A.5.5,0,0,0,39.5,42.5Z"/><path d="M31,42a.5.5,0,1,0,1,0V27H31Z"/><path d="M16.854,12H16a.5.5,0,1,0,0,1h.854A3.156,3.156,0,0,1,20,16v3h1V16A4.182,4.182,0,0,0,16.854,12Z"/><path d="M7,19V16a2.974,2.974,0,0,1,2.94-3H11a.5.5,0,1,0,0-1H9.94A3.975,3.975,0,0,0,6,16v3Z"/><path d="M15.006,27.886l-1.467-1.472A1.386,1.386,0,0,0,12.556,26H9.616L7.125,28.5,9.616,31h1.409L9.032,29h2.69a.394.394,0,0,1,.275.11l1.471,1.47a1.391,1.391,0,0,0,.981.42h2.938l2.49-2.5L17.387,26H15.978l1.993,2H15.282A.4.4,0,0,1,15.006,27.886ZM17.972,29l-1,1H14.449a.4.4,0,0,1-.277-.126L12.7,28.4a1.385,1.385,0,0,0-.978-.4H9.033l1-1h2.527a.387.387,0,0,1,.277.119L14.3,28.594a1.389,1.389,0,0,0,.978.406Z"/><path d="M17,4h2a.5.5,0,1,0,0-1H18V0H9V4ZM10,1h7V3H10Z"/><path d="M13.5,10.5A4.505,4.505,0,0,0,18,6a4.458,4.458,0,0,0-.121-1H16.837A3.449,3.449,0,0,1,17,6a3.5,3.5,0,1,1-7,0,3.449,3.449,0,0,1,.163-1H9.121A4.458,4.458,0,0,0,9,6,4.505,4.505,0,0,0,13.5,10.5Z"/><path d="M22,20H4a4,4,0,0,0-4,4V43H1V24a3,3,0,0,1,3-3H22a3,3,0,0,1,3,3V43h1V24A4,4,0,0,0,22,20Z"/></svg>