<svg xmlns="http://www.w3.org/2000/svg" width="45" height="45" viewBox="0 0 45 45"><defs><style>.a{fill:none;}</style></defs><title>cross-border--large</title><circle class="a" cx="41.583" cy="26.583" r="2.417"/><circle class="a" cx="21.583" cy="26.583" r="2.417"/><circle class="a" cx="6.583" cy="41.583" r="2.417"/><path d="M41.583,23.167A3.412,3.412,0,0,0,38.225,26H24.941a3.412,3.412,0,1,0-6.169,2.521L8.521,38.772a3.538,3.538,0,1,0,.723.691l10.22-10.22A3.383,3.383,0,0,0,24.958,27H38.209a3.409,3.409,0,1,0,3.374-3.833ZM6.583,44A2.417,2.417,0,1,1,9,41.583,2.419,2.419,0,0,1,6.583,44Zm15-15A2.417,2.417,0,1,1,24,26.583,2.419,2.419,0,0,1,21.583,29Zm20,0A2.417,2.417,0,1,1,44,26.583,2.419,2.419,0,0,1,41.583,29Z"/><path d="M10.742,25.12a.5.5,0,0,0-.325-.12h-5a.5.5,0,0,0-.384.18l-.417.5a.5.5,0,1,0,.768.64L5.651,26h4.581l.442.38a.5.5,0,0,0,.65-.76Z"/><path d="M10,28.5a.5.5,0,0,0,.354-.853l-.5-.5A.5.5,0,0,0,9.5,27h-6a.5.5,0,0,0-.354.146l-.5.5a.5.5,0,0,0,.707.707L3.707,28H9.293l.354.354A.5.5,0,0,0,10,28.5Z"/><path d="M8.5,29h-6a.5.5,0,0,0-.354.146l-.5.5a.5.5,0,0,0,.707.707L2.707,30H8.293l.354.354a.5.5,0,0,0,.707-.707l-.5-.5A.5.5,0,0,0,8.5,29Z"/><path d="M.646,33.354a.5.5,0,0,0,.708-.707L1.207,32.5l.5-.5H7.293l.354.354a.5.5,0,0,0,.707-.707l-.5-.5A.5.5,0,0,0,7.5,31h-6a.5.5,0,0,0-.354.146l-1,1a.5.5,0,0,0,0,.707Z"/><path d="M22,38.293l-.854.854a.5.5,0,0,0,0,.707l1,1A.5.5,0,0,0,22.5,41h3a.5.5,0,0,0,.354-.146l1-1A.5.5,0,0,0,27,39.5v-3a.5.5,0,0,0-.146-.354l-.647-.646,1.646-1.646A.5.5,0,0,0,28,33.5V29H27v4.293l-1.854,1.854a.5.5,0,0,0,0,.707l.854.853v2.586L25.293,40H22.707l-.5-.5.646-.646A.5.5,0,0,0,23,38.5v-4a.5.5,0,0,0-.146-.354L20.5,31.794h0l-.707.706L22,34.707Z"/><path d="M30.512,23.781h1.414l2.928-2.928A.5.5,0,0,0,35,20.5v-4a.5.5,0,0,0-.146-.354L33.207,14.5l1.646-1.646A.5.5,0,0,0,35,12.5V9.707l.854-.854A.5.5,0,0,0,36,8.5v-4a.5.5,0,0,0-.146-.354l-2-2A.5.5,0,0,0,33.5,2h-10a.5.5,0,0,0-.354.146l-3,3A.5.5,0,0,0,20,5.5v4a.5.5,0,0,0,.146.354L22,11.707v.588L18.341,16H17V12.707l.854-.854a.5.5,0,0,0,0-.707l-2-2A.5.5,0,0,0,15.5,9h-3a.5.5,0,0,0-.5.5v6.793L6.146,22.147A.5.5,0,0,0,6,22.5v1a.5.5,0,0,0,1,0v-.793l5.854-5.854A.5.5,0,0,0,13,16.5V10h2.293l1.5,1.5-.646.646A.5.5,0,0,0,16,12.5v4a.5.5,0,0,0,.5.5h2.05a.5.5,0,0,0,.355-.148l3.95-4A.5.5,0,0,0,23,12.5v-1a.5.5,0,0,0-.146-.354L21,9.293V5.707L23.707,3h9.586L35,4.707V8.293l-.854.854A.5.5,0,0,0,34,9.5v2.793l-1.854,1.854a.5.5,0,0,0,0,.707L34,16.707v3.586Z"/><path d="M3.5,34a.5.5,0,0,0,0,1H8.763l1-1Z"/><path d="M15.239,6a.5.5,0,0,0,0-1h-.857c-.133,0-.26.126-.354.22l-.857.931a.5.5,0,0,0,0,.707l.857.857a.5.5,0,0,0,.354.146.528.528,0,0,0,.354-.89l-.5-.541L14.589,6Z"/><path d="M16.854,2.146a.5.5,0,0,0-.707,0l-1.5,1.5a.5.5,0,0,0,0,.707A.5.5,0,0,0,15,4.5a.5.5,0,0,0,.354-.146l1.5-1.5A.5.5,0,0,0,16.854,2.146Z"/><path d="M20.314.036l-2.5,1A.5.5,0,0,0,18,2a.508.508,0,0,0,.186-.036l2.5-1a.5.5,0,0,0-.372-.928Z"/><path d="M23,0a.5.5,0,1,0,0,1h1a.5.5,0,1,0,0-1Z"/><path d="M27,0a.5.5,0,1,0,0,1h1a.5.5,0,1,0,0-1Z"/></svg>