<svg xmlns="http://www.w3.org/2000/svg" width="42.795" height="44.52" viewBox="0 0 42.795 44.52"><defs><style>.a{fill:none;}</style></defs><title>euregio-ticket--large</title><path class="a" d="M12,21.245c-.116-.067-.23-.138-.349-.2l-1.113,7.5-.289.1a11.68,11.68,0,0,1-7.5,0l-.289-.1-1.113-7.5c-.119.063-.233.134-.349.2V33.268a10.905,10.905,0,0,0,11,0ZM4,32.757a1,1,0,1,1,1-1A1,1,0,0,1,4,32.757Zm5,0a1,1,0,1,1,1-1A1,1,0,0,1,9,32.757Z"/><path class="a" d="M9.639,27.785,10.707,20.6a10.961,10.961,0,0,0-8.414,0l1.068,7.189A10.753,10.753,0,0,0,9.639,27.785Z"/><polygon points="21.011 0 20.534 1.371 19.082 1.401 20.239 2.279 19.819 3.669 21.011 2.84 22.204 3.669 21.783 2.279 22.941 1.401 21.488 1.371 21.011 0"/><polygon points="31.168 2.473 30.691 3.845 29.24 3.875 30.397 4.752 29.976 6.142 31.168 5.313 32.361 6.142 31.94 4.752 33.098 3.875 31.645 3.845 31.168 2.473"/><polygon points="9.101 6.142 10.293 5.313 11.486 6.142 11.065 4.752 12.223 3.875 10.77 3.845 10.293 2.473 9.816 3.845 8.365 3.875 9.522 4.752 9.101 6.142"/><polygon points="37.132 13.052 38.324 12.222 39.517 13.052 39.096 11.662 40.254 10.784 38.802 10.754 38.324 9.383 37.847 10.754 36.395 10.784 37.552 11.662 37.132 13.052"/><polygon points="1.945 13.052 3.137 12.222 4.33 13.052 3.909 11.662 5.067 10.784 3.615 10.754 3.137 9.383 2.661 10.754 1.209 10.784 2.366 11.662 1.945 13.052"/><polygon points="38.802 31.876 38.324 30.504 37.847 31.876 36.395 31.906 37.552 32.783 37.132 34.174 38.324 33.344 39.517 34.174 39.096 32.783 40.254 31.906 38.802 31.876"/><polygon points="31.381 39.296 30.904 37.924 30.427 39.296 28.976 39.325 30.133 40.203 29.712 41.594 30.904 40.764 32.097 41.594 31.676 40.203 32.834 39.325 31.381 39.296"/><polygon points="42.795 21.641 41.343 21.611 40.865 20.239 40.389 21.611 38.937 21.641 40.093 22.518 39.673 23.909 40.865 23.079 42.058 23.909 41.637 22.518 42.795 21.641"/><polygon points="21.488 42.222 21.011 40.851 20.534 42.222 19.082 42.252 20.239 43.129 19.819 44.52 21.011 43.69 22.204 44.52 21.783 43.129 22.941 42.252 21.488 42.222"/><circle cx="4" cy="31.757" r="1"/><circle cx="9" cy="31.757" r="1"/><path d="M13,31.757V20.679a11.952,11.952,0,0,0-13,0V33.835a11.952,11.952,0,0,0,13,0V31.757Zm-6.5-12a10.936,10.936,0,0,1,4.207.84L9.639,27.786a10.741,10.741,0,0,1-6.277,0L2.294,20.6A10.927,10.927,0,0,1,6.5,19.757ZM1,33.269V21.245c.116-.067.23-.138.349-.2l1.113,7.5.289.1a11.68,11.68,0,0,0,7.5,0l.289-.1,1.113-7.5c.119.063.233.134.349.2V33.268a10.905,10.905,0,0,1-11,0Z"/><path d="M10.559,37.757H9.505a.5.5,0,0,0,.048.224l.888,1.776H2.559l.888-1.776a.492.492,0,0,0,.048-.224H2.441L.553,41.533a.5.5,0,0,0,.224.671A.491.491,0,0,0,1,42.257a.5.5,0,0,0,.448-.276l.611-1.224h8.882l.612,1.224a.5.5,0,0,0,.894-.448Z"/></svg>