<svg xmlns="http://www.w3.org/2000/svg" width="34.142" height="41.999" viewBox="0 0 34.142 41.999"><title>invoice--large</title><rect x="5" y="10" width="6" height="1"/><rect x="12" y="10" width="3" height="1"/><rect x="16" y="10" width="2" height="1"/><rect x="5" y="16" width="6" height="1"/><rect x="5" y="13" width="6" height="1"/><rect x="12" y="16" width="3" height="1"/><rect x="12" y="13" width="3" height="1"/><rect x="16" y="16" width="2" height="1"/><rect x="5" y="19" width="3" height="1"/><rect x="16" y="19" width="2" height="1"/><rect x="16" y="13" width="2" height="1"/><path d="M33.642,41.925a.5.5,0,0,1-.5-.5v-15a2.039,2.039,0,0,0-.854-1.8c-.521-.522-9.9-9.554-9.993-9.645a.5.5,0,0,1,.693-.721c.387.373,9.479,9.13,10.007,9.658a3.007,3.007,0,0,1,1.147,2.506v15A.5.5,0,0,1,33.642,41.925Z"/><path d="M18.142,42a.5.5,0,0,1-.354-.146l-5-5a4.853,4.853,0,0,1-1.129-2.221C11.5,34.045,9.228,23,9.132,22.525A3.21,3.21,0,0,1,11.6,18.79a3.391,3.391,0,0,1,4.081,2.326l2.734,8.227a.5.5,0,1,1-.949.315l-2.729-8.212a2.373,2.373,0,0,0-2.953-1.672,2.2,2.2,0,0,0-1.666,2.569c.652,3.175,2.383,11.564,2.509,12.026a3.987,3.987,0,0,0,.871,1.778l5,5a.5.5,0,0,1,0,.707A.505.505,0,0,1,18.142,42Z"/><path d="M17.878.048,17.756,0H0V30H11.091V29H1V1H17V6h5V29H17.87l.1,1H23V5.1ZM18,5V1.51L21.341,5Z"/></svg>