<svg xmlns="http://www.w3.org/2000/svg" width="41" height="41" viewBox="0 0 41 41"><defs><style>.a{fill:none;}</style></defs><title>one-way--large</title><path class="a" d="M36,1H5A4,4,0,0,0,1,5V36a4,4,0,0,0,4,4H36a4,4,0,0,0,4-4V5A4,4,0,0,0,36,1ZM8.5,20.5A.5.5,0,0,1,9,20H28.665L17.7,9.031H19.11L30.579,20.5,19.11,31.969H17.7L28.665,21H9A.5.5,0,0,1,8.5,20.5Z"/><path d="M28.665,21,17.7,31.969H19.11L30.579,20.5,19.11,9.031H17.7L28.665,20H9a.5.5,0,0,0,0,1Z"/><path d="M36,0H5A5,5,0,0,0,0,5V36a5,5,0,0,0,5,5H36a5,5,0,0,0,5-5V5A5,5,0,0,0,36,0Zm4,36a4,4,0,0,1-4,4H5a4,4,0,0,1-4-4V5A4,4,0,0,1,5,1H36a4,4,0,0,1,4,4Z"/></svg>