<svg xmlns="http://www.w3.org/2000/svg" width="45.01" height="35.5" viewBox="0 0 45.01 35.5"><defs><style>.a{fill:none;}</style></defs><title>ov-chipkaart--large</title><circle class="a" cx="20" cy="17.5" r="1.5"/><path class="a" d="M34,2a1,1,0,0,0-1-1H2A1,1,0,0,0,1,2V4H34Z"/><circle class="a" cx="14" cy="9.5" r="1.5"/><path class="a" d="M1,5V21a1,1,0,0,0,1,1H22.709c-.231-1.114-.454-2.2-.64-3.1a2.511,2.511,0,1,1-.453-3.295,3.1,3.1,0,0,1,2.4-2.582,4.311,4.311,0,0,1,.982-.06V10.5a.507.507,0,0,0-.5-.5H22.032a2.8,2.8,0,0,0-1.943,1.115c-.085.088-.166.171-.24.244l0,0-.491.49h0l-1.609,1.608-2.391,2.392-.028-.028c-.23.211-.406.361-.544.465l.067.069c-.068.066-.14.141-.218.221A3.723,3.723,0,0,1,12,18v0H9.5A1.5,1.5,0,0,1,8,16.5v-6A1.5,1.5,0,0,1,9.5,9h2.05a2.5,2.5,0,1,1,0,1H9.5a.507.507,0,0,0-.5.5v6a.507.507,0,0,0,.5.5h2.469a2.8,2.8,0,0,0,1.943-1.115c.085-.088.166-.171.24-.244l0,0,.491-.49h0l1.609-1.608,2.391-2.392.028.028c.23-.211.406-.361.544-.465l-.067-.069c.068-.066.14-.141.218-.221A3.723,3.723,0,0,1,22,9V9h2.5A1.5,1.5,0,0,1,26,10.5V13.15a3.375,3.375,0,0,1,2,2.145L30.354,22H33a1,1,0,0,0,1-1V5Z"/><path d="M44.348,18.141c-.48-.465-8.212-8.209-9.348-9.347V2a2,2,0,0,0-2-2H2A2,2,0,0,0,0,2V21a2,2,0,0,0,2,2H22.916c.549,2.646,1.078,5.173,1.152,5.442a3.767,3.767,0,0,0,1.083,1.915c.095.093,5,5,5,5a.5.5,0,0,0,.708-.707l-5.012-5.012a2.789,2.789,0,0,1-.809-1.457c-.123-.448-1.8-8.6-2.438-11.687A2.125,2.125,0,0,1,24.2,14.008a2.3,2.3,0,0,1,2.858,1.624l2.468,7.033A.5.5,0,0,0,30,23v0h3a2,2,0,0,0,2-2V10.209c2.256,2.26,8.22,8.233,8.652,8.651.36.349.369.786.353,1.663L44,35a.5.5,0,0,0,1,0V21L45,20.54A2.931,2.931,0,0,0,44.348,18.141ZM1,2A1,1,0,0,1,2,1H33a1,1,0,0,1,1,1V4H1ZM18.5,17.5A1.5,1.5,0,1,1,20,19,1.5,1.5,0,0,1,18.5,17.5ZM34,21a1,1,0,0,1-1,1H30.354L28,15.295a3.38,3.38,0,0,0-2-2.145V10.5A1.5,1.5,0,0,0,24.5,9H22V9a3.761,3.761,0,0,0-2.63,1.417c-.152.154-5.364,5.371-5.458,5.465A2.863,2.863,0,0,1,11.969,17H9.5a.507.507,0,0,1-.5-.5v-6a.507.507,0,0,1,.5-.5h2.05a2.5,2.5,0,1,0,0-1H9.5A1.5,1.5,0,0,0,8,10.5v6A1.5,1.5,0,0,0,9.5,18H12v0a3.726,3.726,0,0,0,2.63-1.417C14.708,16.5,20,11.2,20.088,11.115A2.805,2.805,0,0,1,22.031,10H24.5a.507.507,0,0,1,.5.5v2.466a4.318,4.318,0,0,0-.982.06,3.1,3.1,0,0,0-2.4,2.582A2.47,2.47,0,0,0,20,15a2.5,2.5,0,1,0,2.069,3.9c.185.9.409,1.984.64,3.1H2a1,1,0,0,1-1-1V5H34ZM15.5,9.5A1.5,1.5,0,1,1,14,8,1.5,1.5,0,0,1,15.5,9.5Z"/></svg>