<svg xmlns="http://www.w3.org/2000/svg" width="56.5" height="30.09" viewBox="0 0 56.5 30.09"><defs><style>.a{fill:none;}</style></defs><title>public-transport--large</title><circle cx="6.5" cy="17.25" r="0.75"/><circle cx="11.5" cy="17.25" r="0.75"/><path d="M12.5,6h-7a2,2,0,0,0-2,2V19a2,2,0,0,0,2,2h7a2,2,0,0,0,2-2V8A2,2,0,0,0,12.5,6Zm1,4v4h-1V10Zm-2,4h-5V10h5Zm-6,0h-1V10h1Zm8,5a1,1,0,0,1-1,1h-7a1,1,0,0,1-1-1V15h9ZM4.5,9V8a1,1,0,0,1,1-1h7a1,1,0,0,1,1,1V9Z"/><path d="M5,1H6.009a.449.449,0,0,0,.006.121L6.735,4h1.03l-.75-3h3.97l-.75,3h1.03l.72-2.879A.494.494,0,0,0,11.991,1H13a.5.5,0,1,0,0-1H5A.5.5,0,1,0,5,1Z"/><path d="M.223,26.584a.5.5,0,1,0,.554.832l6-4A.494.494,0,0,0,6.991,23H5.6Z"/><path d="M8.1,26.7a.5.5,0,1,0,.8.6l3-4a.486.486,0,0,0,.092-.3H10.875Z"/><rect class="a" x="44.5" y="6" width="9" height="8"/><path class="a" d="M54.5,6v8a1,1,0,0,1-1,1h-9a1,1,0,0,1-1-1V6a1,1,0,0,0-1,1V19a1,1,0,0,0,1,1h11a1,1,0,0,0,1-1V7A1,1,0,0,0,54.5,6ZM46,18.5a1,1,0,1,1,1-1A1,1,0,0,1,46,18.5Zm6,0a1,1,0,1,1,1-1A1,1,0,0,1,52,18.5Z"/><circle cx="46" cy="17.5" r="1"/><circle cx="52" cy="17.5" r="1"/><path d="M54.5,5h-11a2,2,0,0,0-2,2V19a2,2,0,0,0,2,2h11a2,2,0,0,0,2-2V7A2,2,0,0,0,54.5,5Zm-1,1v8h-9V6Zm2,13a1,1,0,0,1-1,1h-11a1,1,0,0,1-1-1V7a1,1,0,0,1,1-1v8a1,1,0,0,0,1,1h9a1,1,0,0,0,1-1V6a1,1,0,0,1,1,1Z"/><path d="M40,8a.5.5,0,0,0-.5.5V11a.5.5,0,0,0,1,0V8.5A.5.5,0,0,0,40,8Z"/><path d="M44.25,24h.5a.75.75,0,0,0,.75-.75V22h-2v1.25A.75.75,0,0,0,44.25,24Z"/><path d="M53.25,24h.5a.75.75,0,0,0,.75-.75V22h-2v1.25A.75.75,0,0,0,53.25,24Z"/><rect class="a" x="23.5" y="6" width="4" height="7"/><rect class="a" x="23.5" y="4" width="9" height="1"/><rect class="a" x="28.5" y="6" width="4" height="7"/><path class="a" d="M22.5,20h11a1,1,0,0,0,1-1V7a1,1,0,0,0-1-1v7a1,1,0,0,1-1,1h-9a1,1,0,0,1-1-1V6a1,1,0,0,0-1,1V19A1,1,0,0,0,22.5,20ZM31,15.5a1,1,0,1,1-1,1A1,1,0,0,1,31,15.5Zm-6,0a1,1,0,1,1-1,1A1,1,0,0,1,25,15.5Z"/><circle cx="25" cy="16.5" r="1"/><circle cx="31" cy="16.5" r="1"/><path d="M22.5,21h11a2,2,0,0,0,2-2V7a2,2,0,0,0-2-2V4a1,1,0,0,0-1-1h-9a1,1,0,0,0-1,1V5a2,2,0,0,0-2,2V19A2,2,0,0,0,22.5,21Zm1-17h9V5h-9Zm0,2h4v7h-4Zm5,0h4v7h-4Zm-7,1a1,1,0,0,1,1-1v7a1,1,0,0,0,1,1h9a1,1,0,0,0,1-1V6a1,1,0,0,1,1,1V19a1,1,0,0,1-1,1h-11a1,1,0,0,1-1-1Z"/><path d="M22.333,30.061a.485.485,0,0,0,.167.029.5.5,0,0,0,.471-.333l2-5.64A.473.473,0,0,0,24.988,24H23.952l-1.923,5.423A.5.5,0,0,0,22.333,30.061Z"/><path d="M31.029,24.117l2,5.64a.5.5,0,0,0,.471.333.485.485,0,0,0,.167-.029.5.5,0,0,0,.3-.638L32.048,24H31.012A.473.473,0,0,0,31.029,24.117Z"/></svg>