<svg xmlns="http://www.w3.org/2000/svg" width="45" height="45" viewBox="0 0 45 45"><defs><style>.a{fill:none;}</style></defs><title>recharge-pillar--large</title><circle class="a" cx="15.5" cy="12.5" r="0.5"/><circle class="a" cx="10.5" cy="8.5" r="0.5"/><rect class="a" x="21" y="24" width="17" height="1"/><path class="a" d="M6.5,16h13A1.5,1.5,0,0,0,21,14.5v-8A1.5,1.5,0,0,0,19.5,5H6.5A1.5,1.5,0,0,0,5,6.5v8A1.5,1.5,0,0,0,6.5,16ZM7,9.5A1.5,1.5,0,0,1,8.5,8h.592a1.5,1.5,0,1,1,0,1H8.5a.5.5,0,0,0-.5.5v2a.5.5,0,0,0,.5.5H9.8a1.509,1.509,0,0,0,.937-.328l3.9-3.124A2.5,2.5,0,0,1,16.2,8h1.3A1.5,1.5,0,0,1,19,9.5v2A1.5,1.5,0,0,1,17.5,13h-.592a1.5,1.5,0,1,1,0-1H17.5a.5.5,0,0,0,.5-.5v-2a.5.5,0,0,0-.5-.5H16.2a1.509,1.509,0,0,0-.937.328l-3.9,3.124A2.5,2.5,0,0,1,9.8,13H8.5A1.5,1.5,0,0,1,7,11.5Z"/><circle class="a" cx="31.5" cy="32.5" r="0.5"/><path class="a" d="M21,26v9H32.871c-.117-.5-.232-1-.33-1.424a1.5,1.5,0,1,1-.122-2.252,1.849,1.849,0,0,1,1.31-1.07c.093-.017.181-.022.271-.03V29.5a.5.5,0,0,0-.5-.5H32.328a1.513,1.513,0,0,0-1.061.439l-2.828,2.828A2.479,2.479,0,0,1,26.672,33H25.5A1.5,1.5,0,0,1,24,31.5v-2A1.5,1.5,0,0,1,25.5,28h.592a1.5,1.5,0,1,1,0,1H25.5a.5.5,0,0,0-.5.5v2a.5.5,0,0,0,.5.5h1.172a1.513,1.513,0,0,0,1.061-.439l2.828-2.828A2.479,2.479,0,0,1,32.328,28H33.5A1.5,1.5,0,0,1,35,29.5v.87a2.02,2.02,0,0,1,1.085,1.225L37.348,35H38V26Z"/><circle class="a" cx="27.5" cy="28.5" r="0.5"/><path d="M39,27.293V24a1,1,0,0,0-1-1H21a1,1,0,0,0-1,1V35a1,1,0,0,0,1,1H33.1c.208.893.382,1.632.414,1.746a2.208,2.208,0,0,0,.631,1.111l3,3A.5.5,0,0,0,37.5,42a.5.5,0,0,0,.354-.853c-3-3-3.007-3.006-3.015-3.012a1.222,1.222,0,0,1-.356-.653c-.058-.208-.765-3.253-1.22-5.218a.876.876,0,0,1,.65-1.027.976.976,0,0,1,1.233.7l1.385,3.732A.5.5,0,0,0,37,36l0,0h1a1,1,0,0,0,1-1V28.707l5,5V41.5a.5.5,0,0,0,1,0V33.293ZM38,24v1H21V24Zm0,11h-.652l-1.263-3.4A2.02,2.02,0,0,0,35,30.371V29.5A1.5,1.5,0,0,0,33.5,28H32.328a2.486,2.486,0,0,0-1.768.732L27.732,31.56a1.507,1.507,0,0,1-1.06.44H25.5a.5.5,0,0,1-.5-.5v-2a.5.5,0,0,1,.5-.5h.592a1.5,1.5,0,1,0,0-1H25.5A1.5,1.5,0,0,0,24,29.5v2A1.5,1.5,0,0,0,25.5,33h1.172a2.486,2.486,0,0,0,1.768-.732l2.828-2.828a1.507,1.507,0,0,1,1.06-.44H33.5a.5.5,0,0,1,.5.5v.724c-.089.008-.178.013-.271.03a1.847,1.847,0,0,0-1.31,1.07A1.48,1.48,0,0,0,31.5,31a1.5,1.5,0,1,0,1.041,2.576c.1.424.213.92.33,1.424H21V26H38ZM27,28.5a.5.5,0,1,1,.5.5A.5.5,0,0,1,27,28.5Zm5,4a.5.5,0,1,1-.5-.5A.5.5,0,0,1,32,32.5Z"/><rect x="8" y="22" width="2" height="2"/><rect x="12" y="22" width="2" height="2"/><rect x="16" y="22" width="2" height="2"/><rect x="8" y="26" width="2" height="2"/><rect x="12" y="26" width="2" height="2"/><rect x="16" y="26" width="2" height="2"/><rect x="8" y="30" width="2" height="2"/><rect x="12" y="30" width="2" height="2"/><rect x="16" y="30" width="2" height="2"/><rect x="8" y="34" width="2" height="2"/><rect x="12" y="34" width="2" height="2"/><rect x="16" y="34" width="2" height="2"/><path d="M22,22v-.5A2.5,2.5,0,0,0,19.5,19H6.5A2.5,2.5,0,0,0,4,21.5v15A2.5,2.5,0,0,0,6.5,39h13a2.5,2.5,0,0,0,2.449-2H20.907A1.5,1.5,0,0,1,19.5,38H6.5A1.5,1.5,0,0,1,5,36.5v-15A1.5,1.5,0,0,1,6.5,20h13A1.5,1.5,0,0,1,21,21.5V22Z"/><path d="M6.5,17h13A2.5,2.5,0,0,0,22,14.5v-8A2.5,2.5,0,0,0,19.5,4H6.5A2.5,2.5,0,0,0,4,6.5v8A2.5,2.5,0,0,0,6.5,17ZM5,6.5A1.5,1.5,0,0,1,6.5,5h13A1.5,1.5,0,0,1,21,6.5v8A1.5,1.5,0,0,1,19.5,16H6.5A1.5,1.5,0,0,1,5,14.5Z"/><path d="M8.5,13H9.8a2.5,2.5,0,0,0,1.562-.548l3.9-3.124A1.5,1.5,0,0,1,16.2,9h1.3a.5.5,0,0,1,.5.5v2a.5.5,0,0,1-.5.5h-.592a1.5,1.5,0,1,0,0,1H17.5A1.5,1.5,0,0,0,19,11.5v-2A1.5,1.5,0,0,0,17.5,8H16.2a2.5,2.5,0,0,0-1.562.548l-3.9,3.124A1.5,1.5,0,0,1,9.8,12H8.5a.5.5,0,0,1-.5-.5v-2A.5.5,0,0,1,8.5,9h.592a1.5,1.5,0,1,0,0-1H8.5A1.5,1.5,0,0,0,7,9.5v2A1.5,1.5,0,0,0,8.5,13Zm7,0a.5.5,0,1,1,.5-.5A.5.5,0,0,1,15.5,13Zm-5-5a.5.5,0,1,1-.5.5A.5.5,0,0,1,10.5,8Z"/><path d="M4.5,1h17A3.5,3.5,0,0,1,25,4.5V22h1V4.5A4.505,4.505,0,0,0,21.5,0H4.5A4.505,4.505,0,0,0,0,4.5V45H1V4.5A3.5,3.5,0,0,1,4.5,1Z"/><rect x="25" y="37" width="1" height="8"/></svg>