<svg xmlns="http://www.w3.org/2000/svg" width="45" height="41" viewBox="0 0 45 41"><defs><style>.a{fill:none;}</style></defs><title>round-trip--large</title><path class="a" d="M40,1H5A4,4,0,0,0,1,5V36a4,4,0,0,0,4,4H40a4,4,0,0,0,4-4V5A4,4,0,0,0,40,1ZM36.484,16,28.513,8.029h1.414L38.4,16.5l-8.47,8.47H28.513L36.482,17H22a.5.5,0,1,1,0-1ZM8.493,25l7.969,7.969H15.048L6.578,24.5l8.47-8.47h1.414L8.491,24H23a.5.5,0,1,1,0,1Z"/><path d="M21.5,16.5a.5.5,0,0,0,.5.5H36.482l-7.969,7.969h1.414L38.4,16.5l-8.47-8.47H28.513L36.484,16H22A.5.5,0,0,0,21.5,16.5Z"/><path d="M23.5,24.5A.5.5,0,0,0,23,24H8.491l7.971-7.971H15.048L6.578,24.5l8.47,8.47h1.414L8.493,25H23A.5.5,0,0,0,23.5,24.5Z"/><path d="M40,0H5A5,5,0,0,0,0,5V36a5,5,0,0,0,5,5H40a5,5,0,0,0,5-5V5A5,5,0,0,0,40,0Zm4,36a4,4,0,0,1-4,4H5a4,4,0,0,1-4-4V5A4,4,0,0,1,5,1H40a4,4,0,0,1,4,4Z"/></svg>