<svg xmlns="http://www.w3.org/2000/svg" width="46.998" height="33.453" viewBox="0 0 46.998 33.453"><defs><style>.a{fill:none;}</style></defs><title>student--large</title><polygon class="a" points="11.058 18.845 21.507 12.748 23.503 13.901 13.052 19.996 23.499 26.028 45 13.613 23.499 1.156 1.998 13.613 11.058 18.845"/><path d="M11,19.965V32.453a1,1,0,0,0,2,0v-6.3L23.5,32.22l12.694-7.394V23.67L23.5,31.064,13,25V21.12l10.5,6.062L47,13.615,23.5,0,0,13.615ZM23.5,1.156,45,13.613,23.5,26.028,13.052,20,23.5,13.9l-2-1.152-10.449,6.1L2,13.614Z"/></svg>