<svg xmlns="http://www.w3.org/2000/svg" width="45" height="35.5" viewBox="0 0 45 35.5"><defs><style>.a{fill:none;}</style></defs><title>subscription--large</title><rect class="a" x="6" y="6" width="7" height="9"/><path class="a" d="M18,8V6H34V2a1,1,0,0,0-1-1H2A1,1,0,0,0,1,2V21a1,1,0,0,0,1,1H22.709c-.545-2.631-1.054-5.113-1.1-5.327a3.134,3.134,0,0,1,2.408-3.647A3.309,3.309,0,0,1,28,15.3L30.354,22H33a1,1,0,0,0,1-1V8Zm-4,8H5V5h9Zm17-5H20V10H31Z"/><path d="M44.354,18.146,35,8.793V2a2,2,0,0,0-2-2H2A2,2,0,0,0,0,2V21a2,2,0,0,0,2,2H22.916c.549,2.646,1.078,5.173,1.152,5.442a3.767,3.767,0,0,0,1.083,1.915c.095.093,5,5,5,5a.5.5,0,0,0,.708-.707l-5.012-5.012a2.789,2.789,0,0,1-.809-1.457c-.123-.448-1.8-8.6-2.438-11.687A2.125,2.125,0,0,1,24.2,14.008a2.3,2.3,0,0,1,2.858,1.624l2.468,7.033A.5.5,0,0,0,30,23v0h3a2,2,0,0,0,2-2V10.207l8.646,8.646A3.77,3.77,0,0,1,44,21V35a.5.5,0,0,0,1,0V21A4.266,4.266,0,0,0,44.354,18.146ZM34,21a1,1,0,0,1-1,1H30.354L28,15.295a3.309,3.309,0,0,0-3.983-2.27,3.135,3.135,0,0,0-2.408,3.647c.044.215.554,2.7,1.1,5.327H2a1,1,0,0,1-1-1V2A1,1,0,0,1,2,1H33a1,1,0,0,1,1,1V7H18V8H34Z"/><path d="M5,16h9V5H5ZM6,6h7v9H6Z"/><rect x="20" y="10" width="11" height="1"/></svg>