<?xml version="1.0" standalone="no"?>
<!DOCTYPE svg PUBLIC "-//W3C//DTD SVG 1.1//EN" "http://www.w3.org/Graphics/SVG/1.1/DTD/svg11.dtd" >
<svg xmlns="http://www.w3.org/2000/svg">
<metadata></metadata>
<defs>
<font id="ns_sansitalic" horiz-adv-x="1170" >
<font-face units-per-em="2048" ascent="1638" descent="-410" />
<missing-glyph horiz-adv-x="573" />
<glyph horiz-adv-x="1024" />
<glyph horiz-adv-x="1024" />
<glyph unicode="&#xd;" horiz-adv-x="1024" />
<glyph unicode=" "  horiz-adv-x="573" />
<glyph unicode="&#x09;" horiz-adv-x="573" />
<glyph unicode="&#xa0;" horiz-adv-x="573" />
<glyph unicode="!" horiz-adv-x="820" d="M284 0l36 174h168l-36 -174h-168zM383 355l206 1079h168l-254 -1079h-120z" />
<glyph unicode="&#x22;" horiz-adv-x="883" d="M341 974l103 574h142l-142 -574h-103zM627 974l103 574h140l-142 -574h-101z" />
<glyph unicode="#" d="M123 466l22 108h200l68 322h-199l23 108h198l92 430h114l-90 -430h305l93 430h114l-91 -430h192l-22 -108h-193l-69 -322h193l-23 -108h-194l-99 -466h-114l99 466h-307l-99 -466h-114l99 466h-198zM459 574h307l69 322h-308z" />
<glyph unicode="$" d="M100 69l40 133q149 -84 310 -88l127 595q-269 153 -269 353q0 182 127 283q111 89 299 99l40 190h95l-41 -190q164 0 297 -66l-43 -129q-117 74 -277 79l-112 -516q144 -81 208 -152q91 -99 91 -232q0 -199 -140 -318q-129 -110 -333 -120l-39 -185h-95l39 185 q-191 10 -324 79zM454 1075q0 -123 155 -213l99 464q-112 -15 -179 -76q-75 -67 -75 -175zM547 114q125 13 209 89q92 82 92 203q0 147 -187 254z" />
<glyph unicode="%" horiz-adv-x="1866" d="M233 946q0 200 114 353q125 169 318 169q118 0 189 -65t71 -182q0 -203 -110 -356q-123 -171 -318 -171q-122 0 -193 65.5t-71 186.5zM334 -89l1161 1613h116l-1161 -1613h-116zM364 959q0 -71 41 -115t112 -44q132 0 210 144q65 119 65 262q0 155 -146 155 q-136 0 -216 -139q-66 -116 -66 -263zM1020 213q0 202 112 356q124 170 320 170q119 0 189 -63q73 -66 73 -184q0 -201 -111 -356q-123 -172 -317 -172q-121 0 -192 63q-74 66 -74 186zM1153 226q0 -155 161 -155q130 0 204 145q60 118 60 261q0 155 -146 155 q-136 0 -214 -141q-65 -118 -65 -265z" />
<glyph unicode="&#x26;" horiz-adv-x="1389" d="M95 357q0 335 465 453q-140 191 -140 325q0 150 119 239q108 81 263 81q149 0 244 -70q107 -79 107 -222q0 -265 -413 -402l280 -402q134 143 202 430h131q-78 -339 -269 -529l170 -260h-157l-105 163q-223 -181 -460 -181q-185 0 -305 93q-132 103 -132 282zM239 372 q0 -117 90 -196q86 -75 205 -75q213 0 397 166l-309 462q-383 -118 -383 -357zM551 1124q0 -72 47 -149q79 -131 80 -132q346 96 346 305q0 90 -66 145q-62 53 -153 53q-105 0 -177 -58q-77 -62 -77 -164z" />
<glyph unicode="'" horiz-adv-x="596" d="M341 974l103 574h142l-142 -574h-103z" />
<glyph unicode="(" horiz-adv-x="596" d="M93 355q0 548 561 1193h114q-263 -347 -379 -575q-171 -338 -171 -659q0 -282 133 -728h-92q-166 457 -166 769z" />
<glyph unicode=")" horiz-adv-x="596" d="M-90 -414q260 340 380 574q171 339 171 659q0 280 -135 729h92q168 -455 168 -770q0 -549 -563 -1192h-113z" />
<glyph unicode="*" d="M294 1314l60 106l265 -168l55 309l120 -26l-78 -304l315 45l12 -121l-313 -22l142 -282l-114 -53l-118 293l-224 -218l-82 90l237 204z" />
<glyph unicode="+" d="M118 658v116h421v421h116v-421h422v-116h-422v-420h-116v420h-421z" />
<glyph unicode="," horiz-adv-x="596" d="M-28 -278l214 454h176l-254 -454h-136z" />
<glyph unicode="-" horiz-adv-x="705" d="M75 486l26 116h524l-25 -116h-525z" />
<glyph unicode="." horiz-adv-x="596" d="M149 0l36 174h168l-37 -174h-167z" />
<glyph unicode="/" horiz-adv-x="592" d="M-14 0l751 1434h126l-747 -1434h-130z" />
<glyph unicode="0" d="M130 436q0 343 149 648q184 373 489 373q193 0 293 -131q90 -117 90 -316q0 -168 -57 -380q-54 -207 -137 -359q-157 -289 -451 -289q-184 0 -286 139q-90 125 -90 315zM274 421q0 -130 55 -217q65 -103 188 -103q228 0 376 363q118 290 118 563q0 130 -54 213 q-64 97 -187 97q-236 0 -382 -355q-114 -281 -114 -561z" />
<glyph unicode="1" d="M422 1189l415 245h101l-305 -1434h-136l235 1100q13 63 45 185q-51 -39 -286 -193z" />
<glyph unicode="2" d="M18 0l24 103q46 44 395 344q243 209 376 365q125 147 125 280q0 103 -74 167q-70 61 -175 61q-140 0 -362 -116l9 146q224 99 361 99q163 0 272 -92q115 -97 115 -257q0 -179 -201 -403q-69 -76 -347 -323q-204 -181 -316 -267q109 7 222 7h481l-24 -114h-881z" />
<glyph unicode="3" d="M39 49l41 121q151 -69 338 -69q166 0 286 86q135 96 135 256q0 169 -155 225q-90 33 -299 33l26 122q54 -4 110 -4q174 0 294 57q157 75 157 231q0 113 -96 176q-83 54 -203 54q-167 0 -331 -82l11 131q159 69 327 69q179 0 297 -77q139 -91 139 -260q0 -156 -110 -255 q-101 -91 -262 -111q243 -73 243 -303q0 -210 -181 -345q-165 -122 -382 -122q-198 0 -385 67z" />
<glyph unicode="4" d="M31 340l28 124l866 970h176l-206 -985h208l-23 -109h-211l-71 -340h-137l73 340h-703zM188 449h569l136 645q20 95 71 252q-82 -119 -202 -256q-174 -198 -574 -641z" />
<glyph unicode="5" d="M102 41l28 125q146 -65 285 -65q193 0 326 95q149 106 149 292q0 142 -103 217q-91 67 -238 67q-123 0 -282 -43l163 705h761l-23 -116h-630l-110 -454q116 28 183 28q181 0 300 -104q126 -109 126 -287q0 -241 -184 -386q-169 -133 -416 -133q-171 0 -335 59z" />
<glyph unicode="6" d="M149 505q0 369 167 636q197 314 544 314q151 0 316 -67l-36 -120q-118 69 -284 69q-430 0 -552 -600q161 183 369 183q178 0 293.5 -117.5t115.5 -295.5q0 -212 -142 -367q-146 -158 -357 -158q-224 0 -336 154q-98 136 -98 369zM295 419q0 -139 75 -226q79 -92 215 -92 q158 0 257 121q94 114 94 275q0 132 -78.5 218.5t-209.5 86.5q-157 0 -257 -115q-96 -109 -96 -268z" />
<glyph unicode="7" d="M175 0l774 1171q34 53 111 155q-69 -8 -151 -8h-594l25 116h877l-26 -125l-851 -1309h-165z" />
<glyph unicode="8" d="M87 363q0 307 417 406q-213 127 -213 316q0 175 143 279q128 93 308 93q166 0 277 -78q125 -89 125 -248q0 -260 -395 -381q298 -132 298 -357q0 -189 -154 -306q-140 -105 -336 -105q-191 0 -322 92q-148 106 -148 289zM235 372q0 -131 103 -205q92 -66 228 -66 q134 0 231 79q102 84 102 215q0 117 -94 201q-65 58 -200 115q-370 -98 -370 -339zM439 1092q0 -145 187 -288q370 114 370 322q0 100 -87 159q-77 52 -182 52q-117 0 -198 -63q-90 -69 -90 -182z" />
<glyph unicode="9" d="M97 49l37 119q132 -67 284 -67q430 0 552 600q-151 -183 -370 -183q-177 0 -292.5 116.5t-115.5 294.5q0 212 144 367q148 159 359 159q220 0 331 -156q97 -136 97 -366q0 -369 -168 -637q-196 -314 -544 -314q-143 0 -314 67zM338 941q0 -132 77 -217q80 -88 211 -88 q157 0 257 114q96 110 96 269q0 136 -74 224q-78 94 -212 94q-156 0 -258 -122q-97 -115 -97 -274z" />
<glyph unicode=":" horiz-adv-x="596" d="M149 0l36 174h168l-37 -174h-167zM335 870l37 175h168l-37 -175h-168z" />
<glyph unicode=";" horiz-adv-x="596" d="M-28 -278l214 454h174l-252 -454h-136zM336 870l37 175h167l-36 -175h-168z" />
<glyph unicode="&#x3c;" d="M70 639v157l1001 418v-125l-867 -372l867 -369v-131z" />
<glyph unicode="=" d="M134 519v116h959v-116h-959zM134 819v116h959v-116h-959z" />
<glyph unicode="&#x3e;" d="M155 217v131l867 369l-867 372v125l1001 -418v-157z" />
<glyph unicode="?" horiz-adv-x="1047" d="M306 0l39 174h168l-37 -174h-170zM403 1275l28 129q156 43 260 43q156 0 258 -74q114 -83 114 -234q0 -145 -123 -282q-40 -44 -238 -210q-86 -72 -119.5 -128.5t-54.5 -166.5h-121q18 84 24 106q16 59 39 101q42 77 169 181q160 132 196 172q95 104 95 212q0 99 -86 156 q-74 48 -179 48q-107 0 -262 -53z" />
<glyph unicode="@" horiz-adv-x="1661" d="M192 716q0 313 216 526t530 213q284 0 477 -175q200 -180 200 -461q0 -173 -88 -329q-104 -183 -265 -183q-136 0 -159 134q-96 -140 -260 -140q-141 0 -226 107q-79 99 -79 243q0 173 102 301q110 138 279 138q149 0 236 -149l26 123h109q-31 -143 -62 -285 q-41 -195 -41 -280q0 -97 80 -97q114 0 187 158q60 128 60 257q0 241 -169 392q-163 145 -407 145q-269 0 -452.5 -185t-183.5 -453q0 -289 186 -464q182 -172 471 -172q105 0 241 27q164 33 221 82l35 -101q-19 -9 -56 -26q-195 -85 -439 -85q-331 0 -547 202 q-222 208 -222 537zM658 653q0 -99 52 -168q56 -77 153 -77q120 0 190 122q59 102 59 231q0 94 -46 153q-50 64 -141 64q-117 0 -195 -107q-72 -97 -72 -218z" />
<glyph unicode="A" horiz-adv-x="1436" d="M-41 0l899 1434h168l290 -1434h-146l-73 389h-744l-240 -389h-154zM431 509h640l-114 596q-16 70 -36 214q-15 -40 -109 -191z" />
<glyph unicode="B" horiz-adv-x="1162" d="M114 0l307 1436h217q228 0 340 -50q168 -74 168 -275q0 -288 -344 -363q40 -10 120 -43q127 -73 127 -267q0 -231 -217 -358q-92 -54 -217 -71q-72 -9 -230 -9h-271zM279 120h119q513 0 513 325q0 241 -376 241h-135zM426 806h111q467 0 467 303q0 206 -324 206h-147z " />
<glyph unicode="C" horiz-adv-x="1274" d="M167 617q0 362 235.5 600t596.5 238q204 0 385 -77l-41 -125q-189 80 -353 80q-299 0 -491 -208q-188 -202 -188 -504q0 -218 135 -367q139 -153 355 -153q144 0 325 65l-22 -138q-151 -51 -307 -51q-281 0 -455.5 179.5t-174.5 460.5z" />
<glyph unicode="D" horiz-adv-x="1389" d="M95 0l306 1434h189q260 0 369 -33q194 -57 296 -205q98 -143 98 -349q0 -379 -247 -615q-243 -232 -622 -232h-389zM261 120h153q258 0 391 58q190 84 298 276q102 179 102 397q0 256 -161 368q-135 94 -398 94h-131z" />
<glyph unicode="E" horiz-adv-x="1047" d="M95 0l306 1433h715l-26 -120h-576l-107 -509h546l-26 -120h-546l-120 -564h604l-26 -120h-744z" />
<glyph unicode="F" horiz-adv-x="932" d="M95 0l307 1434h685l-26 -121h-548l-106 -509h524l-25 -120h-525l-146 -684h-140z" />
<glyph unicode="G" horiz-adv-x="1502" d="M175 625q0 373 250 605q244 227 619 227q207 0 417 -84l-43 -131q-179 88 -376 88q-310 0 -513 -195q-208 -198 -208 -505q0 -246 150 -389q146 -140 392 -140q120 0 239 43l105 497h-335l25 120h476l-155 -722q-184 -62 -387 -62q-300 0 -478 174t-178 474z" />
<glyph unicode="H" horiz-adv-x="1389" d="M95 0l306 1434h139l-133 -624h748l133 624h140l-305 -1434h-140l146 690h-748l-146 -690h-140z" />
<glyph unicode="I" horiz-adv-x="478" d="M85 0l305 1434h140l-305 -1434h-140z" />
<glyph unicode="J" horiz-adv-x="705" d="M-28 4l33 121q70 -24 125 -24q161 0 233 167q22 50 76 306l183 860h139l-184 -875q-64 -303 -110 -390q-102 -192 -329 -192q-68 0 -166 27z" />
<glyph unicode="K" horiz-adv-x="1274" d="M95 0l312 1434h136q-40 -214 -138 -634q56 61 144 131l632 503h208l-855 -673l615 -761h-179l-520 658q-22 27 -56 84q-25 -150 -74 -372q-41 -185 -83 -370h-142z" />
<glyph unicode="L" horiz-adv-x="932" d="M95 0l306 1434h139l-279 -1314h599l-25 -120h-740z" />
<glyph unicode="M" horiz-adv-x="1844" d="M95 0l306 1434h210q128 -602 260 -1264h7q38 77 148 249l647 1015h213l-303 -1434h-140l226 1062q30 141 62 245h-11q-20 -59 -150 -262l-669 -1045h-118q-71 326 -143 652q-82 382 -128 655h-8q-18 -133 -43 -250l-226 -1057h-140z" />
<glyph unicode="N" horiz-adv-x="1389" d="M83 0l312 1434h172q279 -731 479 -1275h9q10 88 56 305l204 970h139l-305 -1434h-176l-389 1017q-65 169 -86 260h-11q-5 -81 -34 -215l-228 -1062h-142z" />
<glyph unicode="O" horiz-adv-x="1502" d="M151 570q0 347 209 607q224 278 563 278q260 0 405 -157q141 -152 141 -415q0 -363 -198 -622q-217 -284 -570 -284q-264 0 -411 166q-139 158 -139 427zM304 567q0 -203 103 -330q111 -136 309 -136q284 0 458 256q153 227 153 524q0 197 -101 319q-109 130 -301 130 q-281 0 -460 -247q-161 -224 -161 -516z" />
<glyph unicode="P" horiz-adv-x="1047" d="M95 0l306 1434h212q239 0 354 -59q162 -83 162 -302q0 -119 -60.5 -220t-165.5 -161q-98 -57 -262 -68q-35 -3 -275 -3l-131 -621h-140zM392 742h82q229 0 342 52q165 78 165 283q0 151 -120 205q-79 36 -252 36h-95z" />
<glyph unicode="Q" horiz-adv-x="1502" d="M149 570q0 352 211 610q225 275 569 275q254 0 399 -159q141 -154 141 -410q0 -293 -137 -532q-152 -265 -413 -343l253 -287h-180l-218 258q-46 -5 -70 -5q-268 0 -415 164q-140 158 -140 429zM304 567q0 -203 101 -329q111 -137 309 -137q284 0 457 257 q154 226 154 523q0 196 -102 318q-109 131 -300 131q-281 0 -459 -248q-160 -223 -160 -515z" />
<glyph unicode="R" horiz-adv-x="1162" d="M95 0l308 1436h245q215 0 326 -53q157 -76 157 -270q0 -171 -118.5 -280.5t-291.5 -112.5l-2 -11q91 -12 133 -91q20 -36 51 -164l112 -454h-144l-99 417q-38 160 -76 198q-48 47 -203 47h-116l-142 -662h-140zM403 787h163q167 0 283 70q138 85 138 241q0 138 -120 187 q-76 30 -237 30h-116z" />
<glyph unicode="S" horiz-adv-x="1047" d="M67 58l43 135q157 -92 314 -92q146 0 252 75q120 84 120 224q0 120 -137 221q-126 86 -253 173q-137 115 -137 270q0 188 155 296q137 95 333 95q155 0 316 -64l-45 -134q-125 73 -271 73q-134 0 -229 -59q-112 -70 -112 -196q0 -111 137 -208l254 -172 q137 -117 137 -276q0 -204 -163 -329q-148 -113 -359 -113q-198 0 -355 81z" />
<glyph unicode="T" horiz-adv-x="1047" d="M216 1313l24 121h1010l-26 -121h-436l-277 -1313h-140l279 1313h-434z" />
<glyph unicode="U" horiz-adv-x="1389" d="M190 406q0 161 78 531q57 248 113 497h140q-56 -246 -112 -491q-82 -379 -82 -528q0 -146 90 -230t237 -84q252 0 370 208q64 112 131 430l146 695h140l-151 -705q-79 -373 -171 -517q-152 -235 -469 -235q-200 0 -328 113q-132 119 -132 316z" />
<glyph unicode="V" horiz-adv-x="1274" d="M239 1434h142l163 -1017q20 -125 30 -301h9q57 140 187 361l563 957h150l-853 -1434h-150z" />
<glyph unicode="W" horiz-adv-x="1956" d="M239 1434h140q30 -330 60 -659q32 -387 32 -661h9q52 155 127 303l516 1017h174q23 -330 47 -660q26 -385 26 -660h8q50 149 129 303l525 1017h150l-748 -1434h-172l-66 952q-11 154 -11 273q0 48 2 90h-8q-25 -90 -144 -326l-499 -989h-170z" />
<glyph unicode="X" horiz-adv-x="1274" d="M-58 0l693 759l-353 675h157q198 -387 288 -587h11q88 106 533 587h181l-641 -682l374 -752h-157q-105 223 -318 668q-108 -149 -285 -342l-304 -326h-179z" />
<glyph unicode="Y" horiz-adv-x="1274" d="M239 1434h155q107 -238 305 -718q105 152 298 371q154 174 308 347h170l-724 -828l-129 -606h-140l129 606z" />
<glyph unicode="Z" horiz-adv-x="1047" d="M-28 0l27 131l924 1094q13 16 86 92q-60 -4 -84 -4h-656l26 121h903l-28 -129l-907 -1077q-62 -73 -105 -114q53 6 98 6h692l-25 -120h-951z" />
<glyph unicode="[" horiz-adv-x="596" d="M-28 -414l415 1962h323l-19 -91h-200l-381 -1785h200l-17 -86h-321z" />
<glyph unicode="\" horiz-adv-x="592" d="M241 1434h118l292 -1434h-119z" />
<glyph unicode="]" horiz-adv-x="596" d="M-28 -414l19 90h201l378 1783h-200l20 89h320l-417 -1962h-321z" />
<glyph unicode="^" d="M196 617l329 817h157l333 -817h-128l-287 696l-276 -696h-128z" />
<glyph unicode="_" horiz-adv-x="1366" d="M-36 -330l25 118h1365l-25 -118h-1365z" />
<glyph unicode="`" horiz-adv-x="478" d="M486 1498h185l183 -281h-114z" />
<glyph unicode="a" horiz-adv-x="1047" d="M61 267q0 374 628 374q52 0 118 -3q10 64 10 108q0 99 -69 153q-63 49 -165 49q-140 0 -311 -82l17 140q170 56 307 56q152 0 247 -76q103 -82 103 -229q0 -107 -52 -361q-61 -298 -72 -396h-121q3 65 31 166q-78 -96 -151 -136q-82 -44 -198 -44q-136 0 -225 70 q-97 78 -97 211zM198 273q0 -85 64 -132q57 -42 145 -42q175 0 271 134q70 97 109 294h-107q-482 0 -482 -254z" />
<glyph unicode="b" horiz-adv-x="1162" d="M70 0l328 1548h131q-53 -225 -144 -673q134 187 349 187q182 0 280 -122q89 -113 89 -299q0 -259 -128 -447q-147 -212 -394 -212q-265 0 -340 239q-16 -135 -49 -221h-122zM306 413q0 -130 69 -219q76 -97 202 -97q184 0 295 187q94 159 94 357q0 307 -256 307 q-182 0 -300 -183q-104 -161 -104 -352z" />
<glyph unicode="c" horiz-adv-x="932" d="M77 458q0 263 170 429t432 166q136 0 281 -41l-34 -126q-126 53 -256 53q-200 0 -326.5 -136.5t-126.5 -338.5q0 -163 82 -258q87 -101 247 -101q84 0 242 50l-17 -129q-137 -34 -247 -34q-206 0 -328 131q-119 127 -119 335z" />
<glyph unicode="d" horiz-adv-x="1162" d="M93 404q0 256 128 444q146 214 390 214q122 0 209 -54q97 -60 125 -172h8q14 146 62 358l82 354h133l-266 -1256q-24 -111 -50 -292h-131q11 99 39 196q-71 -111 -149 -160q-87 -54 -212 -54q-179 0 -277 124q-91 114 -91 298zM233 415q0 -135 54 -219q64 -99 191 -99 q181 0 306 182q111 164 111 353q0 134 -68 221q-75 95 -205 95q-183 0 -294 -182q-95 -156 -95 -351z" />
<glyph unicode="e" horiz-adv-x="1047" d="M93 419q0 251 137 438q152 207 394 207q172 0 276 -96q106 -99 106 -269q0 -76 -23 -211h-742q-6 -28 -6 -73q0 -151 79.5 -234.5t229.5 -83.5q127 0 295 66l-9 -120q-138 -61 -299 -61q-204 0 -321 116.5t-117 320.5zM261 600h604q8 50 8 99q0 113 -68.5 181t-182.5 68 q-141 0 -240 -108q-86 -93 -121 -240z" />
<glyph unicode="f" horiz-adv-x="705" d="M149 932l23 111h228q58 275 93 346q87 178 281 178q66 0 140 -24l-26 -114q-56 22 -99 22q-134 0 -194 -146q-17 -40 -62 -262h263l-24 -111h-262l-200 -932h-133l200 932h-228z" />
<glyph unicode="g" horiz-adv-x="1162" d="M7 -371l41 129q175 -90 320 -90q229 0 331 155q48 73 131 360q-153 -181 -359 -181q-178 0 -278 126q-91 116 -91 300q0 252 132 432q147 200 390 200q123 0 210 -55q97 -60 123 -173h7q5 92 43 210h133q-50 -174 -103 -431q-44 -217 -88 -435q-71 -331 -154 -446 q-128 -176 -427 -176q-184 0 -361 75zM241 421q0 -129 65 -212q70 -91 196 -91q181 0 296 165q103 147 103 336q0 138 -65 227q-73 100 -206 100q-186 0 -295 -176q-94 -150 -94 -349z" />
<glyph unicode="h" horiz-adv-x="1162" d="M70 0l328 1548h134l-114 -536q-15 -50 -37 -150q145 200 357 200q141 0 227.5 -83.5t86.5 -224.5q0 -116 -60 -388l-84 -366h-134q43 179 85 359q55 251 55 376q0 94 -57.5 153.5t-150.5 59.5q-187 0 -295 -177q-71 -116 -118 -341l-90 -430h-133z" />
<glyph unicode="i" horiz-adv-x="478" d="M69 0l223 1042h134l-224 -1042h-133zM342 1337l36 178h157l-38 -178h-155z" />
<glyph unicode="j" horiz-adv-x="478" d="M-233 -425l32 110q48 -17 79 -17q99 0 144 94q19 40 49 179l234 1101h133l-238 -1125q-38 -179 -78 -246q-70 -117 -216 -117q-69 0 -139 21zM357 1337l36 178h157l-38 -178h-155z" />
<glyph unicode="k" horiz-adv-x="1024" d="M79 0l329 1548h133q-47 -235 -95 -470q-57 -278 -109 -465h6q107 97 278 222q144 103 288 207h189l-632 -466l473 -576h-172q-150 182 -441 552q-1 -17 -19 -109l-95 -443h-133z" />
<glyph unicode="l" horiz-adv-x="478" d="M75 0l329 1548h133l-329 -1548h-133z" />
<glyph unicode="m" horiz-adv-x="1729" d="M73 0q59 259 118 517q69 314 93 525h129q-7 -92 -37 -180q125 198 348 198q247 0 260 -239q116 239 368 239q136 0 215 -75.5t79 -210.5q0 -113 -62 -395q-44 -189 -88 -379h-133l82 356q66 301 66 394q0 86 -52 141t-137 55q-273 0 -379 -505l-92 -441h-133 q43 184 85 368q61 274 61 384q0 85 -42 137q-45 57 -128 57q-285 0 -393 -505l-95 -441h-133z" />
<glyph unicode="n" horiz-adv-x="1162" d="M83 0q76 346 211 1042h131q-13 -60 -37 -182q133 200 359 200q146 0 231 -78q89 -81 89 -225q0 -118 -59 -392q-42 -182 -85 -365h-133q43 180 85 361q53 238 53 374q0 97 -56 154t-153 57q-304 0 -404 -475l-99 -471h-133z" />
<glyph unicode="o" horiz-adv-x="1162" d="M112 434q0 246 159 432q167 196 408 196q201 0 315 -125q111 -120 111 -322q0 -255 -153 -439q-163 -194 -412 -194q-199 0 -316 127q-112 124 -112 325zM252 441q0 -148 71 -241q79 -103 221 -103q187 0 310 170q111 154 111 348q0 142 -70 233q-77 100 -216 100 q-187 0 -312 -164q-115 -150 -115 -343z" />
<glyph unicode="p" horiz-adv-x="1162" d="M-9 -412l246 1162q39 185 54 292h125q-15 -61 -39 -187q75 111 151 156q82 49 212 49q183 0 280 -112q92 -106 92 -292q0 -262 -139 -457q-155 -217 -407 -217q-248 0 -318 220l-125 -614h-132zM310 393q0 -130 59 -209q67 -87 193 -87q195 0 312 190q100 163 100 371 q0 126 -60 203q-66 85 -189 85q-190 0 -310 -188q-105 -164 -105 -365z" />
<glyph unicode="q" horiz-adv-x="1162" d="M97 415q0 255 130 438q146 207 391 207q145 0 217 -55q64 -49 122 -186q16 66 50 223h131q-22 -76 -67 -283l-256 -1196h-131q40 205 138 611h-7q-112 -192 -335 -192q-188 0 -289 125q-94 115 -94 308zM233 415q0 -138 60 -222q68 -96 200 -96q182 0 298 182 q102 159 102 353q0 131 -69 219q-74 95 -202 95q-188 0 -297 -179q-92 -152 -92 -352z" />
<glyph unicode="r" horiz-adv-x="705" d="M79 0l118 518q68 308 90 524h134q-10 -89 -39 -180h11q98 189 296 189q48 0 114 -9l-30 -139q-56 17 -99 17q-164 0 -256 -143q-61 -96 -103 -291l-103 -486h-133z" />
<glyph unicode="s" horiz-adv-x="842" d="M18 45l40 125q149 -73 280 -73q103 0 177 45q87 53 87 150q0 89 -108 163l-202 128q-109 84 -109 195q0 142 130 219q108 65 259 65q142 0 271 -56l-41 -125q-117 67 -241 67q-87 0 -155 -35q-83 -44 -83 -124q0 -77 108 -147q101 -64 202 -129q109 -90 109 -214 q0 -159 -132 -245q-113 -72 -281 -72q-138 0 -311 63z" />
<glyph unicode="t" horiz-adv-x="705" d="M138 933l24 109h212l52 248l144 49l-62 -297h277l-24 -109h-277l-82 -352q-56 -253 -56 -368q0 -108 129 -108q45 0 104 22l-18 -116q-61 -21 -118 -21q-232 0 -232 218q0 108 61 383q39 171 79 342h-213z" />
<glyph unicode="u" horiz-adv-x="1162" d="M153 318q0 133 53 371q41 177 83 353h133q-40 -169 -80 -339q-53 -240 -53 -361q0 -109 50 -174q55 -71 160 -71q162 0 258 146q62 93 112 290q26 100 112 509h133l-116 -518q-68 -310 -92 -524h-123q8 68 41 200h-7q-107 -218 -348 -218q-148 0 -234 94q-82 92 -82 242z " />
<glyph unicode="v" horiz-adv-x="932" d="M155 1042h135l66 -460q37 -273 42 -464h8q93 198 240 466q127 229 255 458h148l-589 -1042h-159z" />
<glyph unicode="w" horiz-adv-x="1616" d="M147 1042h135l62 -642q1 -96 15 -284q46 93 142 275l366 651h157q31 -230 62 -461q34 -272 34 -465h7q80 197 224 468l244 458h146l-558 -1042h-162q-31 231 -63 461q-35 273 -35 465h-9q-43 -110 -131 -268l-366 -658h-159z" />
<glyph unicode="x" horiz-adv-x="932" d="M-59 0l491 559l-241 483h146q121 -252 183 -399q207 251 338 399h165l-436 -492l249 -550h-146l-133 303q-25 65 -61 157q-129 -154 -391 -460h-164z" />
<glyph unicode="y" horiz-adv-x="945" d="M-90 -422l37 111q38 -17 78 -17q104 0 187 112q12 16 114 200l-150 1058h135q31 -231 61 -462q35 -269 49 -464q92 202 238 467q128 230 256 459h150l-582 -1029l-104 -194q-69 -122 -137 -182q-89 -81 -198 -81q-69 0 -134 22z" />
<glyph unicode="z" horiz-adv-x="932" d="M-9 0l23 110l672 710q74 78 125 116l-64 -2h-540l24 109h767l-21 -105l-708 -749q-51 -54 -96 -86q63 7 142 7h507l-24 -110h-807z" />
<glyph unicode="{" horiz-adv-x="596" d="M52 -229q0 107 57 316.5t57 314.5q0 90 -90 118l19 88q130 38 166 207l94 440q37 171 131 235q84 58 265 58l-19 -93q-124 -3 -178.5 -47.5t-79.5 -165.5l-93 -434q-37 -177 -161 -245q69 -44 69 -133q0 -108 -58 -319.5t-58 -317.5q0 -114 180 -117l-19 -90h-34 q-119 0 -175 33q-73 43 -73 152z" />
<glyph unicode="|" horiz-adv-x="596" d="M257 -445v1879h138v-1879h-138z" />
<glyph unicode="}" horiz-adv-x="596" d="M-28 -414l19 90q122 4 176.5 49t80.5 166l92 431q40 185 161 245q-71 50 -71 136q0 107 59.5 319.5t59.5 318.5q0 111 -181 114l19 93h33q119 0 175 -33q74 -43 74 -152q0 -108 -57 -317.5t-57 -314.5q0 -92 90 -118l-19 -91q-132 -35 -168 -206l-92 -438 q-36 -170 -130 -234q-85 -58 -264 -58z" />
<glyph unicode="~" d="M173 630q17 311 232 311q79 0 245 -109.5t230 -109.5q110 0 110 161h114v-34q0 -115 -54 -189q-61 -84 -172 -84q-99 0 -260.5 110.5t-216.5 110.5q-98 0 -114 -167h-114z" />
<glyph unicode="&#xa1;" horiz-adv-x="820" d="M130 -390l254 1078h120l-206 -1078h-168zM399 869l36 174h168l-36 -174h-168z" />
<glyph unicode="&#xa2;" d="M263 671q0 236 151 390.5t386 161.5l33 153h94l-32 -155q79 -5 191 -37l-32 -116q-99 40 -183 45l-165 -771q83 2 219 45l-15 -120q-141 -33 -226 -33l-36 -172h-95l37 179q-155 27 -244 151q-83 116 -83 279zM394 675q0 -117 54 -202q57 -91 165 -123l164 766 q-172 -14 -280 -142q-103 -124 -103 -299z" />
<glyph unicode="&#xa3;" d="M54 0l24 114h209l126 595h-187l24 114h189q67 333 142 450q125 191 411 191q125 0 255 -52l-40 -120q-111 51 -211 51q-221 0 -315 -162q-46 -79 -106 -358h354l-26 -114h-352l-127 -595h533l-26 -114h-877z" />
<glyph unicode="&#xa4;" horiz-adv-x="1139" d="M55 289l117 112q-111 139 -111 314q0 187 111 309l-117 113l88 92l117 -115q131 109 309 109t312 -109l110 115l92 -92l-110 -113q104 -122 104 -309q0 -185 -104 -314l110 -112l-92 -88l-110 114q-124 -108 -312 -108q-185 0 -309 108l-117 -114zM203 715 q0 -166 105.5 -277t260.5 -108q160 3 265 117q102 111 102 268t-103 270q-107 118 -264 115q-154 -3 -260 -117.5t-106 -267.5z" />
<glyph unicode="&#xa5;" d="M128 445l24 114h387l8 47l-66 183h-301l23 114h237l-196 531h157q83 -238 234 -718q96 159 258 367q140 175 280 351h167l-421 -531h237l-26 -114h-301l-144 -183l-11 -47h387l-26 -114h-387l-94 -445h-136l95 445h-385z" />
<glyph unicode="&#xa6;" horiz-adv-x="596" d="M257 379h138v-826h-138v826zM257 606v828h138v-828h-138z" />
<glyph unicode="&#xa7;" d="M1 -334l45 124q205 -105 370 -105q135 0 237 67q118 78 118 206q0 126 -151 210q-139 71 -279 143q-151 99 -151 261q0 136 101 236q67 67 220 146q-155 98 -155 258q0 170 145 268q127 87 304 87q173 0 368 -88l-50 -110q-161 84 -303 84q-125 0 -215 -62 q-103 -70 -103 -189q0 -118 146 -200q136 -68 271 -137q146 -93 146 -237q0 -214 -303 -398q155 -104 155 -259q0 -186 -173 -302q-152 -102 -347 -102q-208 0 -396 99zM330 595q0 -118 126 -201q113 -57 227 -115q249 167 249 342q0 87 -136 172q-37 23 -210 105 q-119 -66 -173 -118q-83 -82 -83 -185z" />
<glyph unicode="&#xa8;" horiz-adv-x="478" d="M456 1257l41 185h151l-41 -185h-151zM824 1257l39 185h150l-39 -185h-150z" />
<glyph unicode="&#xa9;" horiz-adv-x="1661" d="M140 716q0 301 215 520t516 219q310 0 527 -215t217 -524q0 -305 -216.5 -522t-520.5 -217t-521 217t-217 522zM248 716q0 -263 185 -451t447 -188q261 0 444.5 188.5t183.5 450.5q0 259 -182 449.5t-440 190.5q-267 0 -452.5 -186.5t-185.5 -453.5zM467 731 q0 195 136 309q128 106 326 106q98 0 212 -40l-11 -111q-128 43 -208 43q-147 0 -237 -84q-92 -87 -92 -232q0 -146 94 -229q90 -79 239 -79q116 0 207 49l5 -123q-93 -33 -203 -33q-207 0 -333 106q-135 114 -135 318z" />
<glyph unicode="&#xaa;" horiz-adv-x="811" d="M169 608l21 97h485l-20 -97h-486zM240 949q0 22 5 46q45 211 383 211q23 0 47 -1q8 37 8 64q0 98 -115 98q-74 0 -190 -60l25 103q104 44 201 44q174 0 174 -156q0 -48 -34 -209q-19 -88 -49 -273h-91q7 48 16 84q-87 -93 -213 -93q-75 0 -121 37.5t-46 104.5zM340 969 q0 -80 96 -80q169 0 222 235h-36q-252 0 -280 -132q-2 -12 -2 -23z" />
<glyph unicode="&#xab;" horiz-adv-x="1409" d="M254 482l16 78l572 389l-36 -170l-386 -258l280 -239l-36 -170zM741 482l17 78l571 389l-36 -170l-386 -258l281 -239l-37 -170z" />
<glyph unicode="&#xac;" d="M81 653v124h998v-572h-125v448h-873z" />
<glyph unicode="&#xad;" d="M101 658v116h959v-116h-959z" />
<glyph unicode="&#xae;" horiz-adv-x="1661" d="M140 716q0 300 214.5 519.5t514.5 219.5q311 0 528.5 -214.5t217.5 -524.5q0 -305 -216.5 -522t-520.5 -217t-521 217t-217 522zM241 716q0 -265 186.5 -455t450.5 -190q265 0 450.5 189.5t185.5 455.5q0 262 -182 453q-185 194 -446 194q-270 0 -457.5 -188.5 t-187.5 -458.5zM659 282v869h174q318 0 318 -230q0 -162 -162 -208q46 -21 91 -120l141 -311h-112l-119 266q-32 71 -49 90q-33 35 -98 35h-83v-391h-101zM760 766h69q89 0 147 33q69 41 69 121q0 138 -213 138h-72v-292z" />
<glyph unicode="&#xaf;" horiz-adv-x="1047" d="M452 1268l22 105h541l-21 -105h-542z" />
<glyph unicode="&#xb0;" horiz-adv-x="842" d="M308 1277q0 123 88 208.5t211 85.5q122 0 210.5 -85.5t88.5 -206.5q0 -120 -89 -205t-210 -85q-120 0 -208 83q-91 85 -91 205zM397 1283q0 -88 61 -149t149 -61q85 0 147 60.5t62 145.5q0 86 -61.5 146t-147.5 60q-84 0 -147 -59t-63 -143z" />
<glyph unicode="&#xb1;" d="M101 0l1 116h958v-116h-959zM101 658l1 116h421v421h116v-421h421v-116h-421v-420h-116v420h-422z" />
<glyph unicode="&#xb2;" horiz-adv-x="822" d="M155 553l20 93q521 443 521 592q0 44 -34 71.5t-84 27.5q-83 0 -225 -70l2 120q152 63 252 63q92 0 151 -45q63 -48 63 -132q0 -24 -5 -50q-27 -125 -165 -276q-66 -72 -247 -232q-40 -36 -62 -54h378l-23 -108h-542z" />
<glyph unicode="&#xb3;" horiz-adv-x="822" d="M155 597l40 119q112 -52 197 -52t153 38q76 43 92 118q4 20 4 36q0 99 -168 107q-2 0 -116 2l23 107q70 0 96 1q210 10 236 136q3 13 3 25q0 102 -150 102q-78 0 -213 -51l15 118q109 43 225 43q101 0 169 -42q80 -49 80 -139q0 -22 -5 -47q-27 -126 -173 -194 q101 -49 101 -158q0 -24 -6 -49q-27 -130 -150 -200q-102 -58 -235 -58q-109 0 -218 38z" />
<glyph unicode="&#xb4;" horiz-adv-x="478" d="M590 1217l240 281h198l-322 -281h-116z" />
<glyph unicode="&#xb5;" d="M12 -445l316 1487h131l-110 -515q-32 -149 -32 -223q0 -203 190 -203q162 0 274 145q88 115 125 289l106 507h131l-138 -659q-29 -129 -69 -383h-122q22 133 48 213q-145 -228 -395 -228q-152 0 -216 77l-108 -507h-131z" />
<glyph unicode="&#xb6;" horiz-adv-x="1252" d="M278 959q0 221 160 353q150 122 375 122h516l-22 -104h-122l-372 -1744h-112l370 1744h-207l-369 -1744h-114l232 1087q-335 0 -335 286z" />
<glyph unicode="&#xb7;" horiz-adv-x="596" d="M237 705q0 48 34.5 82.5t83.5 34.5q48 0 82.5 -34.5t34.5 -82.5q0 -49 -34.5 -83.5t-82.5 -34.5q-49 0 -83.5 34.5t-34.5 83.5z" />
<glyph unicode="&#xb8;" horiz-adv-x="478" d="M250 -358l45 65q82 -41 142 -41q45 0 79 20q41 24 41 66q0 73 -96 73q-21 0 -60 -9l-26 32l109 152h82l-77 -106q17 2 38 2q61 0 103 -33q46 -35 46 -94q0 -79 -82 -131q-71 -45 -155 -45q-90 0 -189 49z" />
<glyph unicode="&#xb9;" horiz-adv-x="822" d="M216 1257l252 177h96l-187 -879h-113l153 724q-50 -35 -148 -104z" />
<glyph unicode="&#xba;" horiz-adv-x="811" d="M167 608l20 97h489l-21 -97h-488zM210 1033q0 43 10 91q30 140 123 231q100 99 237 99q235 0 235 -235q0 -46 -11 -96q-30 -140 -123 -230q-100 -98 -237 -98q-115 0 -177 68q-57 63 -57 170zM310 1055q0 -77 37 -126q40 -53 113 -53q108 0 184 107q69 97 69 211 q0 178 -145 178q-112 0 -188 -106q-70 -96 -70 -211z" />
<glyph unicode="&#xbb;" horiz-adv-x="1409" d="M175 112l36 170l382 239l-276 258l36 170l406 -389l-17 -78zM663 112l36 170l382 239l-276 258l36 170l406 -389l-17 -78z" />
<glyph unicode="&#xbc;" horiz-adv-x="1661" d="M320 0l1028 1434h129l-1028 -1434h-129zM331 1257l250 177h94l-186 -876h-112l153 721q-50 -35 -146 -103zM897 196l21 99l512 579h131l-122 -570h126l-23 -108h-126l-41 -196h-114l42 196h-406zM1052 304h274l87 409z" />
<glyph unicode="&#xbd;" horiz-adv-x="1661" d="M320 0l1028 1434h129l-1028 -1434h-129zM341 1257l249 177h95l-186 -876h-112l153 721q-50 -35 -147 -103zM971 0l20 93q232 197 303 267q213 209 213 309q0 45 -33.5 72t-84.5 27q-82 0 -223 -70l2 120q151 63 250 63q92 0 151 -45q63 -48 63 -131q0 -25 -6 -51 q-26 -123 -162 -268q-46 -48 -244 -224q-41 -36 -63 -55h377l-23 -107h-540z" />
<glyph unicode="&#xbe;" horiz-adv-x="1661" d="M114 599l40 118q111 -52 196 -52t152 39q76 43 92 117q4 20 4 37q0 98 -167 106q-2 0 -115 2l22 107q70 0 96 1q208 10 235 136q3 13 3 25q0 101 -149 101q-78 0 -213 -50l16 117q108 43 224 43q101 0 173 -42q84 -50 84 -141q0 -21 -4 -45q-26 -121 -183 -193 q100 -49 100 -158q0 -23 -5 -49q-28 -130 -150 -199q-102 -59 -233 -59q-110 0 -218 39zM329 0l1030 1434h129l-1029 -1434h-130zM895 196l21 99l514 580h130l-121 -571h126l-23 -108h-126l-42 -196h-113l41 196h-407zM1051 304h274l87 409z" />
<glyph unicode="&#xbf;" horiz-adv-x="1047" d="M104 -95q0 145 123 281q39 44 238 210q86 73 119.5 129t54.5 166h120q-17 -83 -23 -106q-16 -59 -39 -100q-43 -77 -169 -181q-160 -133 -197 -173q-94 -104 -94 -211q0 -99 86 -155q74 -49 178 -49q107 0 262 54l-27 -129q-157 -43 -261 -43q-156 0 -257 74 q-114 83 -114 233zM654 869l36 174h170l-38 -174h-168z" />
<glyph unicode="&#xc0;" horiz-adv-x="1436" d="M-30 0l899 1434h168l290 -1434h-146l-73 389h-744l-240 -389h-154zM442 509h640l-114 596q-16 70 -36 214q-15 -40 -109 -191zM635 1839h185l183 -281h-114z" />
<glyph unicode="&#xc1;" horiz-adv-x="1436" d="M-30 0l899 1434h168l290 -1434h-146l-73 389h-744l-240 -389h-154zM442 509h640l-114 596q-16 70 -36 214q-15 -40 -109 -191zM885 1558l240 281h198l-322 -281h-116z" />
<glyph unicode="&#xc2;" horiz-adv-x="1436" d="M-30 0l899 1434h168l290 -1434h-146l-73 389h-744l-240 -389h-154zM442 509h640l-114 596q-16 70 -36 214q-15 -40 -109 -191zM659 1558l286 281h156l168 -281h-137l-127 199l-211 -199h-135z" />
<glyph unicode="&#xc3;" horiz-adv-x="1436" d="M-30 0l899 1434h168l290 -1434h-146l-73 389h-744l-240 -389h-154zM442 509h640l-114 596q-16 70 -36 214q-15 -40 -109 -191zM662 1557q40 181 187 181q51 0 136 -40t122 -40q57 0 85 71h82q-50 -180 -185 -180q-49 0 -134 39.5t-128 39.5q-48 0 -86 -71h-79z" />
<glyph unicode="&#xc4;" horiz-adv-x="1436" d="M-30 0l899 1434h168l290 -1434h-146l-73 389h-744l-240 -389h-154zM442 509h640l-114 596q-16 70 -36 214q-15 -40 -109 -191zM696 1557l41 185h151l-41 -185h-151zM1064 1557l39 185h150l-39 -185h-150z" />
<glyph unicode="&#xc5;" horiz-adv-x="1436" d="M-30 0l899 1434h168l290 -1434h-146l-73 389h-744l-240 -389h-154zM442 509h640l-114 596q-16 70 -36 214q-15 -40 -109 -191zM791 1657q0 78 55.5 135.5t133.5 57.5q80 0 137.5 -55.5t57.5 -135.5q0 -79 -56 -136t-135 -57t-136 56t-57 135zM879 1659q0 -43 31 -74 t74 -31q42 0 72.5 30.5t30.5 72.5t-30.5 73.5t-72.5 31.5t-73.5 -30.5t-31.5 -72.5z" />
<glyph unicode="&#xc6;" horiz-adv-x="1844" d="M-78 0l1095 1436h888l-26 -121h-629l-63 -518h546l-26 -120h-537l-69 -557h546l-26 -120h-679l47 383h-608l-294 -383h-165zM469 503h535l82 640q7 65 28 192h-15z" />
<glyph unicode="&#xc7;" horiz-adv-x="1274" d="M166 615q0 362 235 601t597 239q203 0 385 -77l-41 -125q-189 80 -353 80q-299 0 -491 -208q-188 -202 -188 -504q0 -218 135 -367q139 -153 355 -153q144 0 325 65l-22 -138q-138 -51 -344 -51l-58 -83q21 2 43 2q64 0 105 -32q46 -36 46 -97q0 -88 -84 -142 q-74 -47 -165 -47q-93 0 -192 49l48 71q76 -39 141 -39q46 0 80 22q41 26 41 69q0 75 -97 75q-22 0 -62 -9l-24 32l99 140q-244 44 -380 212q-134 165 -134 415z" />
<glyph unicode="&#xc8;" horiz-adv-x="1047" d="M106 0l306 1433h715l-26 -120h-576l-107 -509h546l-26 -120h-546l-120 -564h604l-26 -120h-744zM486 1839h185l183 -281h-114z" />
<glyph unicode="&#xc9;" horiz-adv-x="1047" d="M106 0l306 1433h715l-26 -120h-576l-107 -509h546l-26 -120h-546l-120 -564h604l-26 -120h-744zM670 1558l240 281h198l-322 -281h-116z" />
<glyph unicode="&#xca;" horiz-adv-x="1047" d="M106 0l306 1433h715l-26 -120h-576l-107 -509h546l-26 -120h-546l-120 -564h604l-26 -120h-744zM494 1558l286 281h156l168 -281h-137l-127 199l-211 -199h-135z" />
<glyph unicode="&#xcb;" horiz-adv-x="1047" d="M106 0l306 1433h715l-26 -120h-576l-107 -509h546l-26 -120h-546l-120 -564h604l-26 -120h-744zM532 1554l41 185h151l-41 -185h-151zM900 1554l39 185h150l-39 -185h-150z" />
<glyph unicode="&#xcc;" horiz-adv-x="478" d="M96 0l305 1434h140l-305 -1434h-140zM197 1838h185l183 -281h-114z" />
<glyph unicode="&#xcd;" horiz-adv-x="478" d="M96 0l305 1434h140l-305 -1434h-140zM434 1558l240 281h198l-322 -281h-116z" />
<glyph unicode="&#xce;" horiz-adv-x="478" d="M96 0l305 1434h140l-305 -1434h-140zM216 1603l286 281h156l168 -281h-137l-127 199l-211 -199h-135z" />
<glyph unicode="&#xcf;" horiz-adv-x="478" d="M96 0l305 1434h140l-305 -1434h-140zM265 1600l41 185h151l-41 -185h-151zM633 1600l39 185h150l-39 -185h-150z" />
<glyph unicode="&#xd0;" horiz-adv-x="1389" d="M85 690l23 116h157l133 628h190q262 0 371 -33q194 -56 295 -205q97 -142 97 -349q0 -380 -246 -616q-241 -231 -621 -231h-391l148 690h-156zM261 120h152q258 0 392 58q190 83 298 275q101 179 101 396q0 257 -159 370q-135 94 -399 94h-132l-109 -507h402l-24 -116 h-402z" />
<glyph unicode="&#xd1;" horiz-adv-x="1389" d="M94 0l312 1434h172q279 -731 479 -1275h9q10 88 56 305l204 970h139l-305 -1434h-176l-389 1017q-65 169 -86 260h-11q-5 -81 -34 -215l-228 -1062h-142zM665 1555q40 181 187 181q51 0 136 -40t122 -40q57 0 85 71h82q-50 -180 -185 -180q-49 0 -134 39.5t-128 39.5 q-48 0 -86 -71h-79z" />
<glyph unicode="&#xd2;" horiz-adv-x="1502" d="M162 570q0 347 209 607q224 278 563 278q260 0 405 -157q141 -152 141 -415q0 -363 -198 -622q-217 -284 -570 -284q-264 0 -411 166q-139 158 -139 427zM315 567q0 -203 103 -330q111 -136 309 -136q284 0 458 256q153 227 153 524q0 197 -101 319q-109 130 -301 130 q-281 0 -460 -247q-161 -224 -161 -516zM673 1838h185l183 -281h-114z" />
<glyph unicode="&#xd3;" horiz-adv-x="1502" d="M162 570q0 347 209 607q224 278 563 278q260 0 405 -157q141 -152 141 -415q0 -363 -198 -622q-217 -284 -570 -284q-264 0 -411 166q-139 158 -139 427zM315 567q0 -203 103 -330q111 -136 309 -136q284 0 458 256q153 227 153 524q0 197 -101 319q-109 130 -301 130 q-281 0 -460 -247q-161 -224 -161 -516zM849 1600l240 281h198l-322 -281h-116z" />
<glyph unicode="&#xd4;" horiz-adv-x="1502" d="M162 570q0 347 209 607q224 278 563 278q260 0 405 -157q141 -152 141 -415q0 -363 -198 -622q-217 -284 -570 -284q-264 0 -411 166q-139 158 -139 427zM315 567q0 -203 103 -330q111 -136 309 -136q284 0 458 256q153 227 153 524q0 197 -101 319q-109 130 -301 130 q-281 0 -460 -247q-161 -224 -161 -516zM678 1559l286 281h156l168 -281h-137l-127 199l-211 -199h-135z" />
<glyph unicode="&#xd5;" horiz-adv-x="1502" d="M162 570q0 347 209 607q224 278 563 278q260 0 405 -157q141 -152 141 -415q0 -363 -198 -622q-217 -284 -570 -284q-264 0 -411 166q-139 158 -139 427zM315 567q0 -203 103 -330q111 -136 309 -136q284 0 458 256q153 227 153 524q0 197 -101 319q-109 130 -301 130 q-281 0 -460 -247q-161 -224 -161 -516zM690 1557q40 181 187 181q51 0 136 -40t122 -40q57 0 85 71h82q-50 -180 -185 -180q-49 0 -134 39.5t-128 39.5q-48 0 -86 -71h-79z" />
<glyph unicode="&#xd6;" horiz-adv-x="1502" d="M162 570q0 347 209 607q224 278 563 278q260 0 405 -157q141 -152 141 -415q0 -363 -198 -622q-217 -284 -570 -284q-264 0 -411 166q-139 158 -139 427zM315 567q0 -203 103 -330q111 -136 309 -136q284 0 458 256q153 227 153 524q0 197 -101 319q-109 130 -301 130 q-281 0 -460 -247q-161 -224 -161 -516zM726 1557l41 185h151l-41 -185h-151zM1094 1557l39 185h150l-39 -185h-150z" />
<glyph unicode="&#xd7;" d="M237 419l298 297l-298 298l82 82l298 -297l298 297l82 -82l-298 -298l297 -297l-82 -82l-297 297l-298 -298z" />
<glyph unicode="&#xd8;" horiz-adv-x="1502" d="M121 28l138 153q-108 161 -108 395q0 350 212 606q226 273 568 273q199 0 359 -118l131 142l78 -71l-136 -151q106 -153 106 -374q0 -361 -198 -622q-217 -284 -567 -284q-229 0 -374 126l-132 -145zM304 565q0 -128 62 -275l821 944q-90 96 -268 96q-278 0 -456 -251 q-159 -225 -159 -514zM433 211q106 -110 283 -110q283 0 457 256q154 226 154 522q0 167 -69 277z" />
<glyph unicode="&#xd9;" horiz-adv-x="1389" d="M201 406q0 161 78 531q57 248 113 497h140q-56 -246 -112 -491q-82 -379 -82 -528q0 -146 90 -230t237 -84q252 0 370 208q64 112 131 430l146 695h140l-151 -705q-79 -373 -171 -517q-152 -235 -469 -235q-200 0 -328 113q-132 119 -132 316zM649 1838h185l183 -281 h-114z" />
<glyph unicode="&#xda;" horiz-adv-x="1389" d="M201 406q0 161 78 531q57 248 113 497h140q-56 -246 -112 -491q-82 -379 -82 -528q0 -146 90 -230t237 -84q252 0 370 208q64 112 131 430l146 695h140l-151 -705q-79 -373 -171 -517q-152 -235 -469 -235q-200 0 -328 113q-132 119 -132 316zM789 1557l240 281h198 l-322 -281h-116z" />
<glyph unicode="&#xdb;" horiz-adv-x="1389" d="M201 406q0 161 78 531q57 248 113 497h140q-56 -246 -112 -491q-82 -379 -82 -528q0 -146 90 -230t237 -84q252 0 370 208q64 112 131 430l146 695h140l-151 -705q-79 -373 -171 -517q-152 -235 -469 -235q-200 0 -328 113q-132 119 -132 316zM662 1557l286 281h156 l168 -281h-137l-127 199l-211 -199h-135z" />
<glyph unicode="&#xdc;" horiz-adv-x="1389" d="M201 406q0 161 78 531q57 248 113 497h140q-56 -246 -112 -491q-82 -379 -82 -528q0 -146 90 -230t237 -84q252 0 370 208q64 112 131 430l146 695h140l-151 -705q-79 -373 -171 -517q-152 -235 -469 -235q-200 0 -328 113q-132 119 -132 316zM719 1558l41 185h151 l-41 -185h-151zM1087 1558l39 185h150l-39 -185h-150z" />
<glyph unicode="&#xdd;" horiz-adv-x="1274" d="M250 1434h155q107 -238 305 -718q105 152 298 371q154 174 308 347h170l-724 -828l-129 -606h-140l129 606zM741 1558l240 281h198l-322 -281h-116z" />
<glyph unicode="&#xde;" horiz-adv-x="1047" d="M95 0l308 1438h139l-47 -219q284 0 395 -44q194 -76 194 -317q0 -254 -226 -383q-101 -58 -261 -70q-39 -3 -274 -3l-86 -402h-142zM347 524h81q229 0 342 53q166 77 166 281q0 150 -119 204q-79 36 -251 36h-97z" />
<glyph unicode="&#xdf;" horiz-adv-x="1162" d="M70 0l208 989q59 280 139 398q121 180 364 180q160 0 258 -86q103 -89 103 -247q0 -167 -99 -279.5t-264 -131.5q288 -51 288 -329q0 -218 -142 -361t-359 -143q-105 0 -232 36l39 122q102 -43 208 -43q150 0 249 116q95 110 95 263q0 273 -359 273l26 120q173 0 286 80 q129 91 129 257q0 106 -65.5 172.5t-171.5 66.5q-173 0 -263 -167q-50 -91 -98 -317l-206 -969h-133z" />
<glyph unicode="&#xe0;" horiz-adv-x="1047" d="M72 267q0 374 628 374q52 0 118 -3q10 64 10 108q0 99 -69 153q-63 49 -165 49q-140 0 -311 -82l17 140q170 56 307 56q152 0 247 -76q103 -82 103 -229q0 -107 -52 -361q-61 -298 -72 -396h-121q3 65 31 166q-78 -96 -151 -136q-82 -44 -198 -44q-136 0 -225 70 q-97 78 -97 211zM209 273q0 -85 64 -132q57 -42 145 -42q175 0 271 134q70 97 109 294h-107q-482 0 -482 -254zM410 1498h185l183 -281h-114z" />
<glyph unicode="&#xe1;" horiz-adv-x="1047" d="M72 267q0 374 628 374q52 0 118 -3q10 64 10 108q0 99 -69 153q-63 49 -165 49q-140 0 -311 -82l17 140q170 56 307 56q152 0 247 -76q103 -82 103 -229q0 -107 -52 -361q-61 -298 -72 -396h-121q3 65 31 166q-78 -96 -151 -136q-82 -44 -198 -44q-136 0 -225 70 q-97 78 -97 211zM209 273q0 -85 64 -132q57 -42 145 -42q175 0 271 134q70 97 109 294h-107q-482 0 -482 -254zM601 1217l240 281h198l-322 -281h-116z" />
<glyph unicode="&#xe2;" horiz-adv-x="1047" d="M72 267q0 374 628 374q52 0 118 -3q10 64 10 108q0 99 -69 153q-63 49 -165 49q-140 0 -311 -82l17 140q170 56 307 56q152 0 247 -76q103 -82 103 -229q0 -107 -52 -361q-61 -298 -72 -396h-121q3 65 31 166q-78 -96 -151 -136q-82 -44 -198 -44q-136 0 -225 70 q-97 78 -97 211zM209 273q0 -85 64 -132q57 -42 145 -42q175 0 271 134q70 97 109 294h-107q-482 0 -482 -254zM359 1217l286 281h156l168 -281h-137l-127 199l-211 -199h-135z" />
<glyph unicode="&#xe3;" horiz-adv-x="1047" d="M72 267q0 374 628 374q52 0 118 -3q10 64 10 108q0 99 -69 153q-63 49 -165 49q-140 0 -311 -82l17 140q170 56 307 56q152 0 247 -76q103 -82 103 -229q0 -107 -52 -361q-61 -298 -72 -396h-121q3 65 31 166q-78 -96 -151 -136q-82 -44 -198 -44q-136 0 -225 70 q-97 78 -97 211zM209 273q0 -85 64 -132q57 -42 145 -42q175 0 271 134q70 97 109 294h-107q-482 0 -482 -254zM393 1216q40 181 187 181q51 0 136 -40t122 -40q57 0 85 71h82q-50 -180 -185 -180q-49 0 -134 39.5t-128 39.5q-48 0 -86 -71h-79z" />
<glyph unicode="&#xe4;" horiz-adv-x="1047" d="M72 267q0 374 628 374q52 0 118 -3q10 64 10 108q0 99 -69 153q-63 49 -165 49q-140 0 -311 -82l17 140q170 56 307 56q152 0 247 -76q103 -82 103 -229q0 -107 -52 -361q-61 -298 -72 -396h-121q3 65 31 166q-78 -96 -151 -136q-82 -44 -198 -44q-136 0 -225 70 q-97 78 -97 211zM209 273q0 -85 64 -132q57 -42 145 -42q175 0 271 134q70 97 109 294h-107q-482 0 -482 -254zM399 1216l41 185h151l-41 -185h-151zM767 1216l39 185h150l-39 -185h-150z" />
<glyph unicode="&#xe5;" horiz-adv-x="1047" d="M72 267q0 374 628 374q52 0 118 -3q10 64 10 108q0 99 -69 153q-63 49 -165 49q-140 0 -311 -82l17 140q170 56 307 56q152 0 247 -76q103 -82 103 -229q0 -107 -52 -361q-61 -298 -72 -396h-121q3 65 31 166q-78 -96 -151 -136q-82 -44 -198 -44q-136 0 -225 70 q-97 78 -97 211zM209 273q0 -85 64 -132q57 -42 145 -42q175 0 271 134q70 97 109 294h-107q-482 0 -482 -254zM468 1329q0 78 55.5 135.5t133.5 57.5q80 0 137.5 -55.5t57.5 -135.5q0 -79 -56 -136t-135 -57t-136 56t-57 135zM556 1331q0 -43 31 -74t74 -31q42 0 72.5 30.5 t30.5 72.5t-30.5 73.5t-72.5 31.5t-73.5 -30.5t-31.5 -72.5z" />
<glyph unicode="&#xe6;" horiz-adv-x="1644" d="M61 275q0 340 590 340q53 0 121 -2q11 70 11 116q0 96 -52 155.5t-148 59.5q-124 0 -292 -80l21 133q156 63 280 63q265 0 290 -220q43 106 150 165q99 55 220 55q352 0 352 -372q0 -85 -17 -185h-703q-8 -56 -8 -92q0 -141 76 -226q79 -88 218 -88q128 0 258 53 l-15 -126q-149 -42 -260 -42q-317 0 -368 282q-75 -282 -382 -282q-142 0 -238 74q-104 82 -104 219zM198 275q0 -83 63 -133q58 -45 144 -45q275 0 346 406h-67q-200 0 -303 -29q-183 -52 -183 -199zM903 613h566q6 37 6 81q0 250 -223 250q-137 0 -231 -102 q-81 -86 -118 -229z" />
<glyph unicode="&#xe7;" horiz-adv-x="932" d="M102 458q0 263 169.5 429t432.5 166q135 0 281 -41l-34 -126q-127 53 -256 53q-200 0 -329 -138q-125 -135 -125 -337q0 -163 82 -258q87 -101 247 -101q84 0 243 50l-17 -129q-138 -34 -249 -34l-71 -98q19 2 38 2q62 0 103 -32q46 -36 46 -95q0 -79 -81 -131 q-70 -45 -154 -45q-89 0 -191 49l45 65q82 -41 142 -41q45 0 79 20q42 24 42 66q0 73 -95 73q-25 0 -62 -9l-26 32l107 149q-176 25 -274 155q-93 124 -93 306z" />
<glyph unicode="&#xe8;" horiz-adv-x="1047" d="M104 419q0 251 137 438q152 207 394 207q172 0 276 -96q106 -99 106 -269q0 -76 -23 -211h-742q-6 -28 -6 -73q0 -151 79.5 -234.5t229.5 -83.5q127 0 295 66l-9 -120q-138 -61 -299 -61q-204 0 -321 116.5t-117 320.5zM272 600h604q8 50 8 99q0 113 -68.5 181t-182.5 68 q-141 0 -240 -108q-86 -93 -121 -240zM434 1496h185l183 -281h-114z" />
<glyph unicode="&#xe9;" horiz-adv-x="1047" d="M104 419q0 251 137 438q152 207 394 207q172 0 276 -96q106 -99 106 -269q0 -76 -23 -211h-742q-6 -28 -6 -73q0 -151 79.5 -234.5t229.5 -83.5q127 0 295 66l-9 -120q-138 -61 -299 -61q-204 0 -321 116.5t-117 320.5zM272 600h604q8 50 8 99q0 113 -68.5 181t-182.5 68 q-141 0 -240 -108q-86 -93 -121 -240zM601 1217l240 281h198l-322 -281h-116z" />
<glyph unicode="&#xea;" horiz-adv-x="1047" d="M104 419q0 251 137 438q152 207 394 207q172 0 276 -96q106 -99 106 -269q0 -76 -23 -211h-742q-6 -28 -6 -73q0 -151 79.5 -234.5t229.5 -83.5q127 0 295 66l-9 -120q-138 -61 -299 -61q-204 0 -321 116.5t-117 320.5zM272 600h604q8 50 8 99q0 113 -68.5 181t-182.5 68 q-141 0 -240 -108q-86 -93 -121 -240zM377 1215l286 281h156l168 -281h-137l-127 199l-211 -199h-135z" />
<glyph unicode="&#xeb;" horiz-adv-x="1047" d="M104 419q0 251 137 438q152 207 394 207q172 0 276 -96q106 -99 106 -269q0 -76 -23 -211h-742q-6 -28 -6 -73q0 -151 79.5 -234.5t229.5 -83.5q127 0 295 66l-9 -120q-138 -61 -299 -61q-204 0 -321 116.5t-117 320.5zM272 600h604q8 50 8 99q0 113 -68.5 181t-182.5 68 q-141 0 -240 -108q-86 -93 -121 -240zM404 1217l41 185h151l-41 -185h-151zM772 1217l39 185h150l-39 -185h-150z" />
<glyph unicode="&#xec;" horiz-adv-x="478" d="M81 0l223 1042h133l-223 -1042h-133zM109 1498h185l183 -281h-114z" />
<glyph unicode="&#xed;" horiz-adv-x="478" d="M81 0l223 1042h133l-223 -1042h-133zM337 1217l240 281h198l-322 -281h-116z" />
<glyph unicode="&#xee;" horiz-adv-x="478" d="M81 0l223 1042h133l-223 -1042h-133zM110 1217l286 281h156l168 -281h-137l-127 199l-211 -199h-135z" />
<glyph unicode="&#xef;" horiz-adv-x="478" d="M81 0l223 1042h133l-223 -1042h-133zM152 1216l41 185h151l-41 -185h-151zM520 1216l39 185h150l-39 -185h-150z" />
<glyph unicode="&#xf0;" horiz-adv-x="1274" d="M93 436q0 247 162 433q168 193 412 193q207 0 299 -159q-9 257 -161 415l-228 -140l-60 84l191 120q-98 56 -209 77l41 95q160 -22 286 -101l226 135l56 -83l-200 -125q193 -185 193 -623q0 -316 -128 -524q-154 -249 -452 -249q-198 0 -315 128q-113 124 -113 324z M231 449q0 -151 71 -246q79 -106 225 -106q191 0 311 172q108 154 108 352q0 136 -71 227q-78 100 -210 100q-187 0 -315 -159q-119 -148 -119 -340z" />
<glyph unicode="&#xf1;" horiz-adv-x="1162" d="M95 0q76 346 211 1042h131q-13 -60 -37 -182q133 200 359 200q146 0 231 -78q89 -81 89 -225q0 -118 -59 -392q-42 -182 -85 -365h-133q43 180 85 361q53 238 53 374q0 97 -56 154t-153 57q-304 0 -404 -475l-99 -471h-133zM504 1218q40 181 187 181q51 0 136 -40 t122 -40q57 0 85 71h82q-50 -180 -185 -180q-49 0 -134 39.5t-128 39.5q-48 0 -86 -71h-79z" />
<glyph unicode="&#xf2;" horiz-adv-x="1162" d="M123 434q0 246 159 432q167 196 408 196q201 0 315 -125q111 -120 111 -322q0 -255 -153 -439q-163 -194 -412 -194q-199 0 -316 127q-112 124 -112 325zM263 441q0 -148 71 -241q79 -103 221 -103q187 0 310 170q111 154 111 348q0 142 -70 233q-77 100 -216 100 q-187 0 -312 -164q-115 -150 -115 -343zM478 1498h185l183 -281h-114z" />
<glyph unicode="&#xf3;" horiz-adv-x="1162" d="M123 434q0 246 159 432q167 196 408 196q201 0 315 -125q111 -120 111 -322q0 -255 -153 -439q-163 -194 -412 -194q-199 0 -316 127q-112 124 -112 325zM263 441q0 -148 71 -241q79 -103 221 -103q187 0 310 170q111 154 111 348q0 142 -70 233q-77 100 -216 100 q-187 0 -312 -164q-115 -150 -115 -343zM624 1217l240 281h198l-322 -281h-116z" />
<glyph unicode="&#xf4;" horiz-adv-x="1162" d="M123 434q0 246 159 432q167 196 408 196q201 0 315 -125q111 -120 111 -322q0 -255 -153 -439q-163 -194 -412 -194q-199 0 -316 127q-112 124 -112 325zM263 441q0 -148 71 -241q79 -103 221 -103q187 0 310 170q111 154 111 348q0 142 -70 233q-77 100 -216 100 q-187 0 -312 -164q-115 -150 -115 -343zM435 1217l286 281h156l168 -281h-137l-127 199l-211 -199h-135z" />
<glyph unicode="&#xf5;" horiz-adv-x="1162" d="M123 434q0 246 159 432q167 196 408 196q201 0 315 -125q111 -120 111 -322q0 -255 -153 -439q-163 -194 -412 -194q-199 0 -316 127q-112 124 -112 325zM263 441q0 -148 71 -241q79 -103 221 -103q187 0 310 170q111 154 111 348q0 142 -70 233q-77 100 -216 100 q-187 0 -312 -164q-115 -150 -115 -343zM460 1217q40 181 187 181q51 0 136 -40t122 -40q57 0 85 71h82q-50 -180 -185 -180q-49 0 -134 39.5t-128 39.5q-48 0 -86 -71h-79z" />
<glyph unicode="&#xf6;" horiz-adv-x="1162" d="M123 434q0 246 159 432q167 196 408 196q201 0 315 -125q111 -120 111 -322q0 -255 -153 -439q-163 -194 -412 -194q-199 0 -316 127q-112 124 -112 325zM263 441q0 -148 71 -241q79 -103 221 -103q187 0 310 170q111 154 111 348q0 142 -70 233q-77 100 -216 100 q-187 0 -312 -164q-115 -150 -115 -343zM473 1217l41 185h151l-41 -185h-151zM841 1217l39 185h150l-39 -185h-150z" />
<glyph unicode="&#xf7;" d="M138 658v116h959v-116h-959zM503 350q0 49 34.5 83.5t83.5 34.5t83.5 -34.5t34.5 -83.5t-34.5 -83.5t-83.5 -34.5t-83.5 34.5t-34.5 83.5zM503 1078q0 49 34.5 83.5t83.5 34.5t83.5 -34.5t34.5 -83.5t-34.5 -83.5t-83.5 -34.5t-83.5 34.5t-34.5 83.5z" />
<glyph unicode="&#xf8;" horiz-adv-x="1162" d="M78 24l105 116q-88 121 -88 296q0 249 161 433q168 193 413 193q146 0 265 -84l96 107l76 -64l-104 -114q86 -94 86 -299q0 -249 -155 -433q-163 -193 -408 -193q-162 0 -275 87l-97 -109zM235 443q0 -112 47 -200l559 645q-76 60 -183 60q-184 0 -309 -164 q-114 -151 -114 -341zM340 159q76 -62 189 -62q190 0 311 172q109 155 109 352q0 90 -43 183z" />
<glyph unicode="&#xf9;" horiz-adv-x="1162" d="M164 318q0 133 53 371q41 177 83 353h133q-40 -169 -80 -339q-53 -240 -53 -361q0 -109 50 -174q55 -71 160 -71q162 0 258 146q62 93 112 290q26 100 112 509h133l-116 -518q-68 -310 -92 -524h-123q8 68 41 200h-7q-107 -218 -348 -218q-148 0 -234 94q-82 92 -82 242z M460 1498h185l183 -281h-114z" />
<glyph unicode="&#xfa;" horiz-adv-x="1162" d="M164 318q0 133 53 371q41 177 83 353h133q-40 -169 -80 -339q-53 -240 -53 -361q0 -109 50 -174q55 -71 160 -71q162 0 258 146q62 93 112 290q26 100 112 509h133l-116 -518q-68 -310 -92 -524h-123q8 68 41 200h-7q-107 -218 -348 -218q-148 0 -234 94q-82 92 -82 242z M601 1217l240 281h198l-322 -281h-116z" />
<glyph unicode="&#xfb;" horiz-adv-x="1162" d="M164 318q0 133 53 371q41 177 83 353h133q-40 -169 -80 -339q-53 -240 -53 -361q0 -109 50 -174q55 -71 160 -71q162 0 258 146q62 93 112 290q26 100 112 509h133l-116 -518q-68 -310 -92 -524h-123q8 68 41 200h-7q-107 -218 -348 -218q-148 0 -234 94q-82 92 -82 242z M437 1217l286 281h156l168 -281h-137l-127 199l-211 -199h-135z" />
<glyph unicode="&#xfc;" horiz-adv-x="1162" d="M164 318q0 133 53 371q41 177 83 353h133q-40 -169 -80 -339q-53 -240 -53 -361q0 -109 50 -174q55 -71 160 -71q162 0 258 146q62 93 112 290q26 100 112 509h133l-116 -518q-68 -310 -92 -524h-123q8 68 41 200h-7q-107 -218 -348 -218q-148 0 -234 94q-82 92 -82 242z M485 1217l41 185h151l-41 -185h-151zM853 1217l39 185h150l-39 -185h-150z" />
<glyph unicode="&#xfd;" horiz-adv-x="945" d="M-89 -422l37 111q38 -17 78 -17q104 0 187 112q12 16 114 200l-150 1058h135q31 -231 61 -462q35 -269 49 -464q92 202 238 467q128 230 256 459h150l-582 -1029l-104 -194q-69 -122 -137 -182q-89 -81 -198 -81q-69 0 -134 22zM570 1217l240 281h198l-322 -281h-116z " />
<glyph unicode="&#xfe;" horiz-adv-x="1162" d="M-9 -412l347 1635q39 184 54 292h122l-137 -660q70 110 149 157q84 50 212 50q182 0 280 -114q92 -107 92 -292q0 -262 -139 -457q-155 -217 -407 -217q-246 0 -318 220q-7 -48 -24 -144l-99 -470h-132zM308 393q0 -129 60 -208q66 -88 192 -88q195 0 312 191 q100 164 100 372q0 125 -60 203q-67 85 -189 85q-190 0 -310 -189q-105 -165 -105 -366z" />
<glyph unicode="&#xff;" horiz-adv-x="945" d="M-89 -422l37 111q38 -17 78 -17q104 0 187 112q12 16 114 200l-150 1058h135q31 -231 61 -462q35 -269 49 -464q92 202 238 467q128 230 256 459h150l-582 -1029l-104 -194q-69 -122 -137 -182q-89 -81 -198 -81q-69 0 -134 22zM386 1218l41 185h151l-41 -185h-151z M754 1218l39 185h150l-39 -185h-150z" />
<glyph unicode="&#x152;" horiz-adv-x="1833" d="M151 619q0 361 223 594.5t583 233.5q158 0 473 -4.5t473 -4.5l-24 -120h-580l-112 -518h550l-25 -121h-548l-121 -559h602l-26 -120h-640.5t-99.5 -5q-75 -5 -117 -5q-285 0 -450 173q-161 170 -161 456zM304 628q0 -228 113 -366q123 -148 345 -148q73 0 146 19 l247 1167q-97 22 -185 22q-301 0 -486 -198q-180 -193 -180 -496z" />
<glyph unicode="&#x153;" horiz-adv-x="1750" d="M95 417q0 255 144 441q157 202 404 202q135 0 225 -58q100 -66 119 -192q103 250 379 250q161 0 252 -94.5t91 -256.5q0 -90 -27 -223h-673q-17 -66 -17 -112q0 -131 87 -206q82 -71 216 -71q129 0 249 60l-17 -133q-139 -42 -256 -42q-322 0 -372 263 q-117 -263 -408 -263q-187 0 -295 125q-101 119 -101 310zM237 423q0 -136 64 -225q72 -101 203 -101q178 0 289 186q93 158 93 349q0 135 -57 217q-65 95 -194 95q-186 0 -299 -174q-99 -151 -99 -347zM1030 595h538q10 56 10 110q0 107 -52 170q-56 69 -160 69 q-242 0 -336 -349z" />
<glyph unicode="&#x178;" horiz-adv-x="1274" d="M250 1434h155q107 -238 305 -718q105 152 298 371q154 174 308 347h170l-724 -828l-129 -606h-140l129 606zM634 1557l41 185h151l-41 -185h-151zM1002 1557l39 185h150l-39 -185h-150z" />
<glyph unicode="&#x2c6;" horiz-adv-x="1047" d="M403 1217l286 281h156l168 -281h-137l-127 199l-211 -199h-135z" />
<glyph unicode="&#x2dc;" horiz-adv-x="1047" d="M431 1268q40 181 187 181q51 0 136 -40t122 -40q57 0 85 71h82q-50 -180 -185 -180q-49 0 -134 39.5t-128 39.5q-48 0 -86 -71h-79z" />
<glyph unicode="&#x2000;" horiz-adv-x="942" />
<glyph unicode="&#x2001;" horiz-adv-x="1884" />
<glyph unicode="&#x2002;" horiz-adv-x="942" />
<glyph unicode="&#x2003;" horiz-adv-x="1884" />
<glyph unicode="&#x2004;" horiz-adv-x="628" />
<glyph unicode="&#x2005;" horiz-adv-x="471" />
<glyph unicode="&#x2006;" horiz-adv-x="314" />
<glyph unicode="&#x2007;" horiz-adv-x="314" />
<glyph unicode="&#x2008;" horiz-adv-x="235" />
<glyph unicode="&#x2009;" horiz-adv-x="376" />
<glyph unicode="&#x200a;" horiz-adv-x="104" />
<glyph unicode="&#x2010;" horiz-adv-x="705" d="M75 486l26 116h524l-25 -116h-525z" />
<glyph unicode="&#x2011;" horiz-adv-x="705" d="M75 486l26 116h524l-25 -116h-525z" />
<glyph unicode="&#x2012;" horiz-adv-x="705" d="M75 486l26 116h524l-25 -116h-525z" />
<glyph unicode="&#x2013;" horiz-adv-x="1406" d="M220 467l25 116h1035l-25 -116h-1035z" />
<glyph unicode="&#x2014;" horiz-adv-x="1847" d="M220 467l25 116h1476l-24 -116h-1477z" />
<glyph unicode="&#x2018;" horiz-adv-x="596" d="M256 1051l252 454h138l-215 -454h-175z" />
<glyph unicode="&#x2019;" horiz-adv-x="596" d="M256 1051l213 454h177l-254 -454h-136z" />
<glyph unicode="&#x201a;" horiz-adv-x="596" d="M-26 -278l214 454h174l-252 -454h-136z" />
<glyph unicode="&#x201c;" horiz-adv-x="883" d="M256 1051l252 454h138l-215 -454h-175zM562 1051l251 454h138l-213 -454h-176z" />
<glyph unicode="&#x201d;" horiz-adv-x="883" d="M257 1051l213 454h176l-253 -454h-136zM562 1051l213 454h176l-253 -454h-136z" />
<glyph unicode="&#x201e;" horiz-adv-x="883" d="M-26 -278l214 454h174l-252 -454h-136zM278 -278l215 454h176l-253 -454h-138z" />
<glyph unicode="&#x2022;" horiz-adv-x="1047" d="M228 731q0 122 85.5 211.5t206.5 89.5q125 0 212 -88t87 -213q0 -123 -87 -212t-210 -89q-122 0 -208 89t-86 212z" />
<glyph unicode="&#x2026;" horiz-adv-x="1387" d="M206 0l38 178h168l-38 -178h-168zM579 0l37 176h168l-38 -176h-167zM951 0l37 176h168l-37 -176h-168z" />
<glyph unicode="&#x202f;" horiz-adv-x="376" />
<glyph unicode="&#x2039;" horiz-adv-x="921" d="M175 482l16 78l572 389l-36 -170l-386 -258l280 -239l-36 -170z" />
<glyph unicode="&#x203a;" horiz-adv-x="921" d="M214 112l36 170l382 239l-276 258l36 170l406 -389l-17 -78z" />
<glyph unicode="&#x205f;" horiz-adv-x="471" />
<glyph unicode="&#x20ac;" d="M-19 506l23 115h152q0 102 21 196h-132l25 115h140q91 246 303 386q208 138 474 138q120 0 252 -49l-55 -115q-75 43 -193 43q-250 0 -430 -142q-130 -103 -199 -261h646l-58 -115h-627q-24 -96 -24 -196h557l-57 -115h-489q35 -180 167 -293t314 -113q82 0 174 21 l-29 -132q-76 -13 -150 -13q-246 0 -417 144t-206 386h-182z" />
<glyph unicode="&#x2122;" horiz-adv-x="1856" d="M237 1350l19 86h626l-20 -86h-262l-155 -733h-103l155 733h-260zM815 617l176 821h142q55 -231 166 -692q47 79 460 692h144l-175 -821h-103q46 230 149 688q-85 -144 -224 -348l-234 -340h-84q-61 230 -168 694q-1 -17 -17 -92l-127 -602h-105z" />
<glyph unicode="&#xe000;" horiz-adv-x="1040" d="M0 0v1040h1040v-1040h-1040z" />
<glyph unicode="&#xfb01;" horiz-adv-x="1047" d="M149 932l23 111h228q58 275 93 346q87 178 281 178q66 0 140 -24l-26 -114q-56 22 -99 22q-134 0 -194 -146q-17 -40 -62 -262h263l-24 -111h-262l-200 -932h-133l200 932h-228zM627 0l223 1042h134l-224 -1042h-133zM900 1337l36 178h157l-38 -178h-155z" />
<glyph unicode="&#xfb02;" horiz-adv-x="1047" d="M149 932l23 111h228q58 275 93 346q87 178 281 178q66 0 140 -24l-26 -114q-56 22 -99 22q-134 0 -194 -146q-17 -40 -62 -262h263l-24 -111h-262l-200 -932h-133l200 932h-228zM648 0l329 1548h133l-329 -1548h-133z" />
</font>
</defs>
</svg>
