<?xml version="1.0" encoding="UTF-8"?>
<svg width="60px" height="85px" viewBox="0 0 60 85" version="1.1" xmlns="http://www.w3.org/2000/svg" xmlns:xlink="http://www.w3.org/1999/xlink">
    <g id="Symbols" stroke="none" stroke-width="1" fill="none" fill-rule="evenodd">
        <g id="video" transform="translate(-111.000000, -47.000000)">
            <g id="btn-play">
                <g transform="translate(111.000000, 47.000000)">
                    <g id="btn__play">
                        <path d="M4,0 L56,0 C58.209139,-4.05812251e-16 60,1.790861 60,4 L60,60 L0,60 L0,4 C-2.705415e-16,1.790861 1.790861,4.05812251e-16 4,0 Z" id="bg" fill="#0063D3"></path>
                        <polygon id="play" fill="#FFFFFF" points="24 21 39 30 24 39"></polygon>
                    </g>
                    <path d="M0,60 L60,60 L60,81 C60,83.209139 58.209139,85 56,85 L4,85 C1.790861,85 2.705415e-16,83.209139 0,81 L0,60 Z" id="Rectangle" fill="#FFFFFF"></path>
                    <path d="M17.0537109,72.2148438 C17.0537109,68.7786287 18.1975797,67.0605469 20.4853516,67.0605469 C22.7594515,67.0605469 23.8964844,68.7444493 23.8964844,72.1123047 C23.8964844,73.7939537 23.6036813,75.0551716 23.0180664,75.8959961 C22.4324515,76.7368206 21.5882217,77.1572266 20.4853516,77.1572266 C19.3551376,77.1572266 18.5006539,76.7356813 17.921875,75.8925781 C17.3430961,75.049475 17.0537109,73.8235758 17.0537109,72.2148438 Z M19.0566406,72.2148438 C19.0566406,74.5390741 19.5328728,75.7011719 20.4853516,75.7011719 C21.4287157,75.7011719 21.9003906,74.5345169 21.9003906,72.2011719 C21.9003906,70.9342385 21.7910167,70.0056996 21.5722656,69.4155273 C21.3535145,68.8253551 20.9912135,68.5302734 20.4853516,68.5302734 C19.5328728,68.5302734 19.0566406,69.7584513 19.0566406,72.2148438 Z M25.5097656,77 L25.5097656,75.0654297 L27.5058594,75.0654297 L27.5058594,77 L25.5097656,77 Z M25.5097656,71.6542969 L25.5097656,69.7197266 L27.5058594,69.7197266 L27.5058594,71.6542969 L25.5097656,71.6542969 Z M29.4472656,76.8632812 L29.5019531,75.0380859 C30.0397162,75.3753272 30.7346963,75.5439453 31.5869141,75.5439453 C32.2021515,75.5439453 32.6897768,75.3958348 33.0498047,75.0996094 C33.4098325,74.8033839 33.5898438,74.4091821 33.5898438,73.9169922 C33.5898438,73.392901 33.3893249,72.975913 32.9882812,72.6660156 C32.5872376,72.3561182 32.0472039,72.2011719 31.3681641,72.2011719 C30.8212863,72.2011719 30.2379588,72.2991527 29.6181641,72.4951172 L29.7001953,67.1972656 L35.3808594,67.1972656 L35.3808594,68.7285156 L31.5732422,68.7285156 L31.5048828,70.7246094 C31.8421241,70.6972655 32.1041657,70.6835938 32.2910156,70.6835938 C33.3072967,70.6835938 34.131019,70.9763968 34.762207,71.5620117 C35.3933951,72.1476266 35.7089844,72.9052688 35.7089844,73.8349609 C35.7089844,74.8831433 35.3592157,75.6988903 34.659668,76.2822266 C33.9601202,76.8655628 32.9700585,77.1572266 31.6894531,77.1572266 C30.9602828,77.1572266 30.2128945,77.0592458 29.4472656,76.8632812 Z M37.1582031,76.8017578 L37.2744141,75.1132812 C37.9625685,75.4368506 38.6940065,75.5986328 39.46875,75.5986328 C40.1158887,75.5986328 40.6206037,75.4698906 40.9829102,75.2124023 C41.3452167,74.9549141 41.5263672,74.5983096 41.5263672,74.1425781 C41.5263672,73.199214 40.7242919,72.7275391 39.1201172,72.7275391 C38.8011052,72.7275391 38.566407,72.7320963 38.4160156,72.7412109 L38.4160156,71.1347656 C38.5071619,71.1393229 38.5994461,71.1438802 38.6928711,71.1484375 C38.786296,71.1529948 38.8569334,71.1564127 38.9047852,71.1586914 C38.952637,71.1609701 38.985677,71.1621094 39.0039062,71.1621094 C40.6582114,71.1621094 41.4853516,70.6904344 41.4853516,69.7470703 C41.4853516,69.3824852 41.3349624,69.0953787 41.0341797,68.8857422 C40.7333969,68.6761057 40.3050158,68.5712891 39.7490234,68.5712891 C38.9833946,68.5712891 38.2519566,68.7490217 37.5546875,69.1044922 L37.4248047,67.4775391 L38.15625,67.2724609 C38.6302107,67.1311842 39.2591107,67.0605469 40.0429688,67.0605469 C41.1595108,67.0605469 42.0174124,67.2770161 42.6166992,67.7099609 C43.2159861,68.1429058 43.515625,68.7672485 43.515625,69.5830078 C43.515625,70.180016 43.3527035,70.6835917 43.0268555,71.09375 C42.7010075,71.5039083 42.2578153,71.7591141 41.6972656,71.859375 C42.3535189,72.0371103 42.8343084,72.3230775 43.1396484,72.7172852 C43.4449885,73.1114929 43.5976562,73.6526658 43.5976562,74.3408203 C43.5976562,75.2158247 43.245609,75.9039688 42.5415039,76.4052734 C41.8373988,76.906578 40.8792378,77.1572266 39.6669922,77.1572266 C38.8603475,77.1572266 38.0240929,77.0387382 37.1582031,76.8017578 Z" id="0:53" fill="#003082" fill-rule="nonzero"></path>
                </g>
            </g>
        </g>
    </g>
</svg>