<svg xmlns="http://www.w3.org/2000/svg" width="51" height="38" viewBox="0 0 51 38"><defs><style>.a{fill:none;}</style></defs><title>balance--large</title><path class="a" d="M8.625,15.25A7.125,7.125,0,1,0,1.5,8.125,7.125,7.125,0,0,0,8.625,15.25ZM3.082,9.5l.407-1H4.723a2.525,2.525,0,0,1,0-1H3.082l.407-1H4.946A4.23,4.23,0,0,1,9.222,3.479a4.55,4.55,0,0,1,2.565.823l-.37.719a3.732,3.732,0,0,0-2.195-.738A4.341,4.341,0,0,0,5.789,6.5h4.849l-.509,1H5.523a2.036,2.036,0,0,0-.05.5,2.036,2.036,0,0,0,.05.5h4.1l-.509,1H5.789a4.335,4.335,0,0,0,3.392,2.283c.681,0,1.818-.156,1.818-.475v.9c0,.256-1.154.372-1.818.372A4.235,4.235,0,0,1,4.946,9.5Z"/><circle class="a" cx="32.552" cy="31.083" r="2.582"/><circle class="a" cx="24.542" cy="20.083" r="2.582"/><path d="M8.625,16.25A8.125,8.125,0,1,0,.5,8.125,8.125,8.125,0,0,0,8.625,16.25ZM1.5,8.125A7.125,7.125,0,1,1,8.625,15.25,7.125,7.125,0,0,1,1.5,8.125Z"/><path d="M51,35V9c0-1.1-.9-1.5-2-1.5H18.506c.023.31.035.642.035.917V8.5H49c.551,0,1-.051,1,.5v4.5H17.066a9.823,9.823,0,0,1-.716,1H50V35c0,.551-.449,1.5-1,1.5H8c-.551,0-1-.949-1-1.5V18c-.343-.066-.677-.145-1-.24V35c0,1.1.895,2.5,2,2.5H49C50.1,37.5,51,36.1,51,35Z"/><path d="M17.468,19.5A2.567,2.567,0,0,0,15,22.093V29.1a2.357,2.357,0,0,0,2.347,2.367l.107,0,4.171-.01a3.441,3.441,0,0,0,2.466-.851L33.1,21.665a3.853,3.853,0,0,1,2.485-1.184l3.9-.021A1.648,1.648,0,0,1,41,22.095v7.011a1.386,1.386,0,0,1-1.375,1.4q-.047,0-.094,0H36.075a3.605,3.605,0,1,0,.017,1h3.44A2.381,2.381,0,0,0,42,29.208q0-.054,0-.108V22.093a2.494,2.494,0,0,0-2.48-2.5l-3.934-.031A4.762,4.762,0,0,0,32.4,20.948l-9.006,8.943a2.486,2.486,0,0,1-1.736.7l-4.171.01A1.493,1.493,0,0,1,16,29.1v-7.01A1.553,1.553,0,0,1,17.468,20.5H21v-.02a3.582,3.582,0,1,0,0-.794V19.5ZM32.552,33.665a2.582,2.582,0,1,1,2.582-2.582A2.582,2.582,0,0,1,32.552,33.665ZM24.542,17.5a2.582,2.582,0,1,1-2.582,2.582A2.582,2.582,0,0,1,24.542,17.5Z"/><path d="M11,11.25a3.685,3.685,0,0,1-1.859.508A3.753,3.753,0,0,1,5.713,9.5H9l.519-1H5.437a3.628,3.628,0,0,1-.04-.492,3.881,3.881,0,0,1,.04-.508h4.582l.5-1H5.713a3.733,3.733,0,0,1,5.628-1.523l.37-.727A4.53,4.53,0,0,0,4.87,6.5H3.519l-.5,1H4.648a4.7,4.7,0,0,0-.052.508,4.183,4.183,0,0,0,.055.492H3.519l-.5,1H4.87a4.507,4.507,0,0,0,5.718,2.816q.21-.071.412-.163Z"/></svg>