<svg xmlns="http://www.w3.org/2000/svg" width="26.5" height="45" viewBox="0 0 26.5 45"><g id="Layer_2" data-name="Layer 2"><g id="bike-dog--large"><path d="M2.5,29.125a.5.5,0,0,0-.707.707L4.96,33H16.423l2.327-2.274V28.707L20.6,26.853a.5.5,0,0,0-.707-.707L17.75,28.293v2.012L16.015,32H5.374Z"/><path d="M25.244,29H22.461l-.84-.859a.539.539,0,0,0-.362-.15L20.245,28a.5.5,0,0,0,0,1h0l.8-.008.838.857A.494.494,0,0,0,22.25,30h2.5l0,.291L23,32h-1.8a.5.5,0,0,0-.357.15l-2.958,3.021a.5.5,0,0,0-.143.35v2.938a.5.5,0,0,0,.146.353l5.062,5.073a.5.5,0,1,0,.708-.706L18.75,38.251V35.725L21.418,33h1.79a.5.5,0,0,0,.35-.143l2.042-2a.5.5,0,0,0,.15-.36l-.006-1A.5.5,0,0,0,25.244,29Z"/><path d="M2.75,41.717l1.869-2.046a.5.5,0,0,0,.131-.338v-5.8a.5.5,0,0,0-1,0v5.608L1.881,41.185a.5.5,0,0,0-.131.338V45h1Z"/><path d="M16.75,45V38.5a.5.5,0,0,0-.5-.5H10.463L8.6,36.141a.5.5,0,0,0-.854.353v1.834L5.9,40.1a.5.5,0,0,0-.008.713l3.082,3.1a.5.5,0,1,0,.709-.706L6.964,40.466,8.6,38.9a.5.5,0,0,0,.154-.359V37.7L9.9,38.854a.5.5,0,0,0,.354.146H15.75v6Z"/><path d="M10.876,25.833,15.9,30.854l.707-.707-5.021-5.021a.5.5,0,0,0-.707.707Z"/><path d="M5.25,18.75A5.25,5.25,0,1,1,10.5,13.5,5.256,5.256,0,0,1,5.25,18.75Zm0-9.5A4.25,4.25,0,1,0,9.5,13.5,4.255,4.255,0,0,0,5.25,9.25Z"/><path d="M21.25,18.75A5.25,5.25,0,1,1,26.5,13.5,5.256,5.256,0,0,1,21.25,18.75Zm0-9.5A4.25,4.25,0,1,0,25.5,13.5,4.255,4.255,0,0,0,21.25,9.25Z"/><path d="M5.25,14a.5.5,0,0,1-.447-.724L8.441,6H18.25a.5.5,0,0,1,0,1H9.059L5.7,13.724A.5.5,0,0,1,5.25,14Z"/><path d="M21.25,14a.5.5,0,0,1-.467-.32L15.907,1H13.25a.5.5,0,0,1,0-1h3a.5.5,0,0,1,.467.32l5,13a.5.5,0,0,1-.287.646A.5.5,0,0,1,21.25,14Z"/><path d="M10.75,4H8.25a.5.5,0,0,1,0-1h2.5a.5.5,0,0,1,0,1Z"/><path d="M10.25,14h-5a.5.5,0,0,1,0-1h5a.5.5,0,0,1,0,1Z"/><path d="M10.25,14a.5.5,0,0,1-.336-.871l5.5-5a.5.5,0,0,1,.673.741l-5.5,5A.5.5,0,0,1,10.25,14Z"/></g></g></svg>