<svg xmlns="http://www.w3.org/2000/svg" width="39.7" height="31.703" viewBox="0 0 39.7 31.703"><defs><style>.a{fill:none;}</style></defs><title>bike-shed-2--large</title><circle class="a" cx="31.7" cy="3" r="2"/><path class="a" d="M9.4,26a3.915,3.915,0,0,0-1.9-3L6,26Z"/><path class="a" d="M25.4,26.5a4.225,4.225,0,0,0-4.2-4.2c-.4,0-.7.1-1,.1l1.5,3.9a.419.419,0,0,1-.3.6h-.2a.55.55,0,0,1-.5-.3l-1.5-3.9a4.3,4.3,0,0,0-2.3,3.7,4.225,4.225,0,0,0,4.2,4.2,4.163,4.163,0,0,0,4.3-4.023Z"/><path class="a" d="M5.2,27H4.9a.1.1,0,0,1-.1-.1l-.1-.1v-.3h0v-.2h0l1.9-3.8a3.529,3.529,0,0,0-1.4-.3,4.2,4.2,0,1,0,4.2,4.6A29.544,29.544,0,0,1,5.2,27Z"/><path d="M36.7,12V10a3.271,3.271,0,0,0-3.5-3,.5.5,0,1,0,0,1c1.2,0,2.5.8,2.5,2v2Z"/><path d="M27.7,12V10c0-1.2,1.3-2,2.5-2a.5.5,0,0,0,0-1c-1.7,0-3.5,1.2-3.5,3v2Z"/><path d="M34.7,3a3,3,0,1,0-3,3,2.946,2.946,0,0,0,3-2.891C34.7,3.073,34.7,3.036,34.7,3Zm-3,2a2,2,0,1,1,2-2A2,2,0,0,1,31.7,5Z"/><path d="M26.4,26.5a5.228,5.228,0,0,0-5.2-5.2,5.9,5.9,0,0,0-1.4.2l-3.1-8.1a.55.55,0,0,0-.5-.3h-3a.5.5,0,1,0,0,1h2.7l1.9,5H8.4L7.1,21.7a5.847,5.847,0,0,0-1.9-.4A5.228,5.228,0,0,0,0,26.5a5.3,5.3,0,0,0,5.2,5.2,5.227,5.227,0,0,0,5.2-4.8h.2l5.5-5a.495.495,0,0,0-.7-.7l-5,4.5A5.031,5.031,0,0,0,8,22.1L9,20h9.2l.7,1.8A5.283,5.283,0,0,0,16,26.5a5.2,5.2,0,1,0,10.4.006ZM5.2,30.8a4.2,4.2,0,0,1,0-8.4,3.194,3.194,0,0,1,1.4.3L4.7,26.5h0v.2h0V27a.1.1,0,0,0,.1.1.1.1,0,0,1,.1.1H9.4A4.391,4.391,0,0,1,5.2,30.8ZM9.4,26H6l1.5-3A4.632,4.632,0,0,1,9.4,26Zm7.5.5a4.114,4.114,0,0,1,2.3-3.7l1.5,3.9a.55.55,0,0,0,.5.3h.2a.446.446,0,0,0,.319-.544A.441.441,0,0,0,21.7,26.4l-1.6-4a3.4,3.4,0,0,1,1-.1,4.2,4.2,0,1,1-4.2,4.278Q16.9,26.539,16.9,26.5Z"/><path d="M8.2,17h2.5a.5.5,0,1,0,0-1H8.2a.5.5,0,1,0,0,1Z"/><path d="M39.7,31V15a2.006,2.006,0,0,0-2-2h-13a2.006,2.006,0,0,0-2,2v5h1V15a.945.945,0,0,1,.887-1,.933.933,0,0,1,.113,0h13a.945.945,0,0,1,1,.887.933.933,0,0,1,0,.113V31Z"/></svg>