<svg xmlns="http://www.w3.org/2000/svg" width="27" height="41" viewBox="0 0 27 41"><defs><style>.a{fill:none;}</style></defs><title>characteristics--large</title><path class="a" d="M16.5,3H15V1H12V3H10.5A1.5,1.5,0,0,0,9,4.5V6h9V4.5A1.5,1.5,0,0,0,16.5,3Z"/><polygon points="20 4 20 5 26 5 26 40 1 40 1 5 7 5 7 4 0 4 0 41 27 41 27 4 20 4"/><path d="M19,4.5A2.5,2.5,0,0,0,16.5,2H16V0H11V2h-.5A2.5,2.5,0,0,0,8,4.5V7H19ZM18,6H9V4.5A1.5,1.5,0,0,1,10.5,3H12V1h3V3h1.5A1.5,1.5,0,0,1,18,4.5Z"/><rect x="5" y="13" width="1" height="1"/><rect x="8" y="13" width="13" height="1"/><rect x="5" y="16" width="1" height="1"/><rect x="8" y="16" width="13" height="1"/><rect x="5" y="19" width="1" height="1"/><rect x="8" y="19" width="13" height="1"/><rect x="5" y="22" width="1" height="1"/><rect x="8" y="22" width="13" height="1"/><rect x="5" y="25" width="1" height="1"/><rect x="8" y="25" width="13" height="1"/><rect x="5" y="28" width="1" height="1"/><rect x="8" y="28" width="13" height="1"/><rect x="5" y="31" width="1" height="1"/><rect x="8" y="31" width="13" height="1"/></svg>