<svg xmlns="http://www.w3.org/2000/svg" width="45" height="45" viewBox="0 0 45 45"><defs><style>.a{fill:none;}</style></defs><title>check-in-pillar--large</title><circle class="a" cx="15.5" cy="31.5" r="0.5"/><circle class="a" cx="10.5" cy="27.5" r="0.5"/><path class="a" d="M21,26v9H32.871c-.117-.5-.232-1-.33-1.424a1.5,1.5,0,1,1-.122-2.252,1.849,1.849,0,0,1,1.31-1.07c.093-.017.181-.022.271-.03V29.5a.5.5,0,0,0-.5-.5H32.328a1.513,1.513,0,0,0-1.061.439l-2.828,2.828A2.479,2.479,0,0,1,26.672,33H25.5A1.5,1.5,0,0,1,24,31.5v-2A1.5,1.5,0,0,1,25.5,28h.592a1.5,1.5,0,1,1,0,1H25.5a.5.5,0,0,0-.5.5v2a.5.5,0,0,0,.5.5h1.172a1.513,1.513,0,0,0,1.061-.439l2.828-2.828A2.479,2.479,0,0,1,32.328,28H33.5A1.5,1.5,0,0,1,35,29.5v.87A2.019,2.019,0,0,1,36.085,31.6L37.348,35H38V26Z"/><circle class="a" cx="27.5" cy="28.5" r="0.5"/><rect class="a" x="21" y="24" width="17" height="1"/><circle class="a" cx="31.5" cy="32.5" r="0.5"/><path class="a" d="M20.5,16A1.5,1.5,0,0,0,22,14.5v-9A1.5,1.5,0,0,0,20.5,4H5.5A1.5,1.5,0,0,0,4,5.5v9A1.5,1.5,0,0,0,5.5,16Z"/><path d="M39,27.293V24a1,1,0,0,0-1-1H21a1,1,0,0,0-1,1V35a1,1,0,0,0,1,1H33.1c.208.893.382,1.632.414,1.746a2.208,2.208,0,0,0,.631,1.111l3,3A.5.5,0,0,0,37.5,42a.5.5,0,0,0,.354-.853c-3-3-3.007-3.006-3.015-3.012a1.222,1.222,0,0,1-.356-.653c-.058-.208-.765-3.253-1.22-5.218a.876.876,0,0,1,.65-1.027.975.975,0,0,1,1.233.7l1.385,3.732A.5.5,0,0,0,37,36l0,0h1a1,1,0,0,0,1-1V28.707l5,5V41.5a.5.5,0,1,0,1,0V33.293ZM21,24H38v1H21ZM38,35h-.652l-1.263-3.4A2.022,2.022,0,0,0,35,30.37V29.5A1.5,1.5,0,0,0,33.5,28H32.328a2.486,2.486,0,0,0-1.768.732L27.732,31.56a1.507,1.507,0,0,1-1.06.44H25.5a.5.5,0,0,1-.5-.5v-2a.5.5,0,0,1,.5-.5h.592a1.5,1.5,0,1,0,0-1H25.5A1.5,1.5,0,0,0,24,29.5v2A1.5,1.5,0,0,0,25.5,33h1.172a2.486,2.486,0,0,0,1.768-.732l2.828-2.828a1.507,1.507,0,0,1,1.06-.44H33.5a.5.5,0,0,1,.5.5v.724c-.089.008-.177.013-.271.03a1.847,1.847,0,0,0-1.31,1.07A1.48,1.48,0,0,0,31.5,31a1.5,1.5,0,1,0,1.041,2.576c.1.424.213.92.33,1.424H21V26H38ZM27,28.5a.5.5,0,1,1,.5.5A.5.5,0,0,1,27,28.5Zm5,4a.5.5,0,1,1-.5-.5A.5.5,0,0,1,32,32.5Z"/><path d="M20.5,17A2.5,2.5,0,0,0,23,14.5v-9A2.5,2.5,0,0,0,20.5,3H5.5A2.5,2.5,0,0,0,3,5.5v9A2.5,2.5,0,0,0,5.5,17ZM4,14.5v-9A1.5,1.5,0,0,1,5.5,4h15A1.5,1.5,0,0,1,22,5.5v9A1.5,1.5,0,0,1,20.5,16H5.5A1.5,1.5,0,0,1,4,14.5Z"/><path d="M17.5,31h-.592a1.5,1.5,0,1,0,0,1H17.5A1.5,1.5,0,0,0,19,30.5v-2A1.5,1.5,0,0,0,17.5,27H16.2a2.5,2.5,0,0,0-1.562.548l-3.9,3.124A1.5,1.5,0,0,1,9.8,31H8.5a.5.5,0,0,1-.5-.5v-2a.5.5,0,0,1,.5-.5h.592a1.5,1.5,0,1,0,0-1H8.5A1.5,1.5,0,0,0,7,28.5v2A1.5,1.5,0,0,0,8.5,32H9.8a2.5,2.5,0,0,0,1.562-.548l3.9-3.124A1.5,1.5,0,0,1,16.2,28h1.3a.5.5,0,0,1,.5.5v2A.5.5,0,0,1,17.5,31Zm-2,1a.5.5,0,1,1,.5-.5A.5.5,0,0,1,15.5,32Zm-5-5a.5.5,0,1,1-.5.5A.5.5,0,0,1,10.5,27Z"/><rect x="25" y="37" width="1" height="8"/><path d="M4.5,1h17A3.5,3.5,0,0,1,25,4.5V22h1V4.5A4.505,4.505,0,0,0,21.5,0H4.5A4.505,4.505,0,0,0,0,4.5V45H1V4.5A3.5,3.5,0,0,1,4.5,1Z"/><path d="M13,19a10,10,0,1,0,6,17.981V35.689A9,9,0,1,1,18.645,22h1.484A9.965,9.965,0,0,0,13,19Z"/></svg>