<?xml version="1.0" encoding="UTF-8"?>
<svg width="17px" height="11px" viewBox="0 0 17 11" version="1.1" xmlns="http://www.w3.org/2000/svg" xmlns:xlink="http://www.w3.org/1999/xlink">
    <!-- Generator: Sketch 48.1 (47250) - http://www.bohemiancoding.com/sketch -->
    <title>icon-flag</title>
    <desc>Created with Sketch.</desc>
    <defs></defs>
    <g id="07_icons/01_small/english" stroke="none" stroke-width="1" fill="none" fill-rule="evenodd">
        <g id="english">
            <g id="icon-flag">
                <rect id="Rectangle-path" fill="#01247D" x="0" y="0" width="17" height="11"></rect>
                <polygon id="Shape" fill="#FFFFFF" points="17 3.9 10.2 3.9 10.2 0 6.8 0 6.8 3.9 0 3.9 0 7.2 6.8 7.2 6.8 11 10.2 11 10.2 7.2 17 7.2"></polygon>
                <polygon id="Shape" fill="#FFFFFF" points="17 9.7 2 0 0 0 0 1.3 15 11 17 11"></polygon>
                <polygon id="Shape" fill="#FFFFFF" points="0 9.7 15 0 17 0 17 1.3 2 11 0 11"></polygon>
                <polygon id="Shape" fill="#CF142B" points="17 4.5 9.5 4.5 9.5 0 7.5 0 7.5 4.5 0 4.5 0 6.5 7.5 6.5 7.5 11 9.5 11 9.5 6.5 17 6.5"></polygon>
                <polygon id="Shape" fill="#CF142B" points="17 11 17 10.1 12.4 7.2 11.1 7.2"></polygon>
                <polygon id="Shape" fill="#CF142B" points="17 0 15.7 0 10.2 3.5 10.2 3.9 11 3.9"></polygon>
                <polygon id="Shape" fill="#CF142B" points="5.9 7.2 0 11 0 11 1.3 11 6.8 7.4 6.8 7.2"></polygon>
                <polygon id="Shape" fill="#CF142B" points="0 0 0 0.9 4.6 3.9 6 3.9"></polygon>
            </g>
        </g>
    </g>
</svg>