<svg xmlns="http://www.w3.org/2000/svg" width="30" height="30" viewBox="0 0 30 30"><defs><style>.a{fill:#fff;}.b{fill:#cd0067;}</style></defs><title>NS_icons-TDH</title><path class="a" d="M4.627,6.1H19.163a6.285,6.285,0,0,1,6.285,6.285v5.387a6.285,6.285,0,0,1-6.285,6.285H4.627a0,0,0,0,1,0,0V6.1A0,0,0,0,1,4.627,6.1Z"/><rect x="6.445" y="16.206" width="3.525" height="5.854"/><circle cx="8.241" cy="13.28" r="1.996"/><path d="M16.648,5.409H4V24.591H16.648v0a9.995,9.995,0,0,0,6.5-2.045C25.042,20.935,26,18.4,26,15a11.7,11.7,0,0,0-.749-4.329,7.89,7.89,0,0,0-2.088-3.019,9.863,9.863,0,0,0-6.515-2.238Zm-.239,1.274A8.731,8.731,0,0,1,22.317,8.6c1.6,1.42,2.409,3.572,2.409,6.4,0,5.6-2.721,8.317-8.317,8.317H5.274V6.683Z"/><path class="b" d="M18.638,13.723h.647l-.327-.879Z"/><path class="b" d="M21.123,15.224V11.741h.853v2.737h1.58c-.323-4.9-4.109-6.244-7.676-6.244H11.589v3.48h.457a2.456,2.456,0,0,1,.659.067,1.207,1.207,0,0,1,.542.331,1.551,1.551,0,0,1,.338.572,2.557,2.557,0,0,1,.114.816,2.289,2.289,0,0,1-.107.738,1.564,1.564,0,0,1-.379.624,1.276,1.276,0,0,1-.508.287,2.128,2.128,0,0,1-.622.075h-.493v6.842h4.291c3.717,0,7.672-1.116,7.7-6.842Zm-4.138,0h-2.71v-3.51h2.646v.746H15.129v.555H16.8v.746H15.129v.717h1.856Zm2.874,0-.29-.755h-1.2l-.275.755h-.91l1.364-3.51h.839l1.4,3.51Z"/><path class="b" d="M12.378,14.449a.536.536,0,0,0,.233-.117.621.621,0,0,0,.15-.28,2.083,2.083,0,0,0,.064-.582,1.9,1.9,0,0,0-.064-.563.674.674,0,0,0-.167-.284.556.556,0,0,0-.269-.134,2.86,2.86,0,0,0-.533-.03h-.2v2.018h.4A1.775,1.775,0,0,0,12.378,14.449Z"/></svg>