<svg xmlns="http://www.w3.org/2000/svg" width="45" height="35" viewBox="0 0 45 35"><defs><style>.a{fill:none;}</style></defs><title>online--large</title><path class="a" d="M23.3,14.594l-1.469-1.475A.388.388,0,0,0,21.556,13H19.029l-1,1h2.689a1.385,1.385,0,0,1,.978.4l1.471,1.476a.4.4,0,0,0,.278.126h2.527l1-1H24.28A1.392,1.392,0,0,1,23.3,14.594Z"/><path class="a" d="M43.5,1H1.5a.5.5,0,0,0-.5.5v26a.5.5,0,0,0,.5.5h42a.5.5,0,0,0,.5-.5V1.5A.5.5,0,0,0,43.5,1ZM26.387,17H23.449a1.388,1.388,0,0,1-.981-.421L21,15.109A.4.4,0,0,0,20.722,15h-2.69l1.993,2H18.616l-2.491-2.5L18.616,12h2.94a1.385,1.385,0,0,1,.983.414l1.467,1.472a.4.4,0,0,0,.275.114H26.97l-1.993-2h1.409l2.491,2.5Z"/><path d="M24.978,12l1.993,2H24.282a.4.4,0,0,1-.275-.114L22.54,12.414A1.391,1.391,0,0,0,21.556,12h-2.94l-2.491,2.5L18.616,17h1.409l-1.993-2h2.69a.394.394,0,0,1,.275.11l1.471,1.47a1.391,1.391,0,0,0,.981.42h2.938l2.49-2.5L26.387,12Zm1,4H23.448a.4.4,0,0,1-.277-.126L21.7,14.4a1.385,1.385,0,0,0-.978-.4H18.033l1-1h2.527a.387.387,0,0,1,.277.119L23.3,14.594a1.389,1.389,0,0,0,.978.406h2.691Z"/><path d="M43.5,0H1.5A1.5,1.5,0,0,0,0,1.5v26A1.5,1.5,0,0,0,1.5,29h42A1.5,1.5,0,0,0,45,27.5V1.5A1.5,1.5,0,0,0,43.5,0ZM44,27.5a.5.5,0,0,1-.5.5H1.5a.5.5,0,0,1-.5-.5V1.5A.5.5,0,0,1,1.5,1h42a.5.5,0,0,1,.5.5Z"/><path d="M19,33.5a.5.5,0,0,1-.5.5H16v1h2.5A1.5,1.5,0,0,0,20,33.5V30H19Z"/><path d="M26,33.5V30H25v3.5A1.5,1.5,0,0,0,26.5,35H29V34H26.5A.5.5,0,0,1,26,33.5Z"/></svg>