<svg xmlns="http://www.w3.org/2000/svg" width="41" height="41" viewBox="0 0 41 41"><defs><style>.a{fill:none;}</style></defs><title>park-ride--large</title><path class="a" d="M11,14H8v6h3a3,3,0,1,0,0-6Z"/><path class="a" d="M33.062,17A2.95,2.95,0,0,0,30,14H27v6h3A2.95,2.95,0,0,0,33.062,17Z"/><path class="a" d="M36.5,1H4.5A3.5,3.5,0,0,0,1,4.5v32A3.5,3.5,0,0,0,4.5,40h32A3.5,3.5,0,0,0,40,36.5V4.5A3.5,3.5,0,0,0,36.5,1ZM11,21H8v7H7V13h4a3.892,3.892,0,0,1,4.062,4A3.892,3.892,0,0,1,11,21Zm11,0H20v2H19V21H17V20h2V18h1v2h2Zm11.932,6.981-3.647-6.992C30.185,21,30.09,21,30,21H27v7H26V13h4a3.892,3.892,0,0,1,4.062,4,3.706,3.706,0,0,1-2.752,3.793l3.508,6.726Z"/><path d="M36.5,0H4.5A4.505,4.505,0,0,0,0,4.5v32A4.505,4.505,0,0,0,4.5,41h32A4.505,4.505,0,0,0,41,36.5V4.5A4.505,4.505,0,0,0,36.5,0ZM40,36.5A3.5,3.5,0,0,1,36.5,40H4.5A3.5,3.5,0,0,1,1,36.5V4.5A3.5,3.5,0,0,1,4.5,1h32A3.5,3.5,0,0,1,40,4.5Z"/><polygon points="20 18 19 18 19 20 17 20 17 21 19 21 19 23 20 23 20 21 22 21 22 20 20 20 20 18"/><path d="M11,13H7V28H8V21h3a3.892,3.892,0,0,0,4.062-4A3.892,3.892,0,0,0,11,13Zm0,7H8V14h3a3,3,0,1,1,0,6Z"/><path d="M34.062,17A3.892,3.892,0,0,0,30,13H26V28h1V21h3c.09,0,.185,0,.285-.011l3.647,6.992.887-.463-3.508-6.726A3.7,3.7,0,0,0,34.062,17ZM27,20V14h3a3,3,0,1,1,0,6Z"/></svg>