<svg xmlns="http://www.w3.org/2000/svg" width="27.834" height="42.834" viewBox="0 0 27.834 42.834"><defs><style>.a{fill:none;}</style></defs><title>route--large_1</title><circle class="a" cx="3.417" cy="39.417" r="2.417"/><path class="a" d="M24.473,20.028l1.068-7.189a10.959,10.959,0,0,0-8.413,0L18.2,20.029A10.749,10.749,0,0,0,24.473,20.028Z"/><circle class="a" cx="3.417" cy="3.417" r="2.417"/><path class="a" d="M25.372,20.784l-.29.1a11.674,11.674,0,0,1-7.5,0l-.29-.1-1.113-7.5c-.119.063-.232.134-.349.2V25.511a10.905,10.905,0,0,0,11,0V13.488c-.116-.067-.23-.138-.349-.2ZM18.834,25a1,1,0,1,1,1-1A1,1,0,0,1,18.834,25Zm5,0a1,1,0,1,1,1-1A1,1,0,0,1,23.834,25Z"/><path d="M6.834,3.417a3.417,3.417,0,1,0-4,3.358V36.059a3.443,3.443,0,1,0,1-.017V31h2V30h-2V25h2V24h-2V19h2V18h-2V13h2V12h-2V6.791A3.4,3.4,0,0,0,6.834,3.417ZM1,3.417A2.417,2.417,0,1,1,3.417,5.834,2.419,2.419,0,0,1,1,3.417Zm4.833,36A2.417,2.417,0,1,1,3.417,37,2.419,2.419,0,0,1,5.834,39.417Z"/><circle cx="18.834" cy="24" r="1"/><circle cx="23.834" cy="24" r="1"/><path d="M21.334,11a11.934,11.934,0,0,0-6.5,1.922V26.078a11.952,11.952,0,0,0,13,0V12.922A11.934,11.934,0,0,0,21.334,11Zm0,1a10.931,10.931,0,0,1,4.206.84l-1.068,7.189a10.741,10.741,0,0,1-6.277,0L17.127,12.84A10.94,10.94,0,0,1,21.334,12Zm5.5,13.512a10.909,10.909,0,0,1-11,0V13.488c.116-.067.23-.138.349-.2l1.113,7.5.29.1a11.674,11.674,0,0,0,7.5,0l.29-.1,1.113-7.5c.119.063.232.134.349.2Z"/><path d="M25.393,30H24.339a.5.5,0,0,0,.048.224L25.275,32H17.393l.888-1.776A.492.492,0,0,0,18.329,30H17.275l-1.888,3.776a.5.5,0,1,0,.894.448L16.893,33h8.882l.612,1.224a.5.5,0,0,0,.895-.448Z"/></svg>