<svg xmlns="http://www.w3.org/2000/svg" width="45.834" height="22.834" viewBox="0 0 45.834 22.834"><defs><style>.a{fill:none;}</style></defs><title>route--large</title><circle class="a" cx="3.417" cy="3.417" r="2.417"/><circle class="a" cx="42.417" cy="19.417" r="2.417"/><path d="M42.417,16a3.411,3.411,0,0,0-3.358,2.834H32.834v-2h-1v2l-7,0v-2h-1v2H19.547l-3.506-3.506,1.146-1.146-.707-.707-1.146,1.146-4.293-4.293,1.146-1.146-.707-.707L10.334,9.627,6.153,5.446A3.408,3.408,0,1,0,3.417,6.834a3.384,3.384,0,0,0,2.029-.682L19.13,19.8l19.91.015A3.409,3.409,0,1,0,42.417,16ZM1,3.417A2.417,2.417,0,1,1,3.417,5.834,2.419,2.419,0,0,1,1,3.417ZM42.417,21.834a2.417,2.417,0,1,1,2.417-2.417A2.419,2.419,0,0,1,42.417,21.834Z"/></svg>