<svg width="37px" height="37px" viewBox="0 0 37 37" version="1.1" xmlns="http://www.w3.org/2000/svg" xmlns:xlink="http://www.w3.org/1999/xlink">
    <g id="Production" stroke="none" stroke-width="1" fill="none" fill-rule="evenodd">
        <g id="rp_v4.0--s" transform="translate(-289.000000, -169.000000)">
            <g id="planner" transform="translate(0.000000, 60.000000)">
                <g id="input__location" transform="translate(21.000000, 83.000000)">
                    <g id="icoon_wisselen" transform="translate(269.000000, 27.000000)">
                        <g transform="translate(17.500000, 17.500000) rotate(-90.000000) translate(-17.500000, -17.500000) ">
                            <circle id="Oval-2" stroke="#0063d3" cx="17.5" cy="17.5" r="17.5"></circle>
                            <polygon id="Shape" fill="#0063d3" points="24.8452286 21.0428571 20.8595143 25.0285714 22.1128 25.0285714 26.0985143 21.0428571 22.1128 17.0571429 20.8595143 17.0571429"></polygon>
                            <path d="M25.0285712,20.6 C25.2730283,20.6 25.4714283,20.7984 25.4714283,21.0428571 C25.4714283,21.2873143 25.2730283,21.4857143 25.0285712,21.4857143 L16.8285714,21.4857143 C16.5841143,21.4857143 16.3857143,21.2873143 16.3857143,21.0428571 C16.3857143,20.7984 16.5841143,20.6 16.8285714,20.6 L25.0285712,20.6 Z" id="Shape" fill="#0063d3"></path>
                            <polygon id="Shape" fill="#0063d3" points="10.1547714 13.9571429 14.1404857 9.97142857 12.8880857 9.97142857 8.90237143 13.9571429 12.8880857 17.9428571 14.1404857 17.9428571"></polygon>
                            <path d="M9.97142857,14.4 C9.72697143,14.4 9.52857143,14.2016 9.52857143,13.9571429 C9.52857143,13.7126857 9.72697143,13.5142857 9.97142857,13.5142857 L18.1714286,13.5142857 C18.4158857,13.5142857 18.6142857,13.7126857 18.6142857,13.9571429 C18.6142857,14.2016 18.4158857,14.4 18.1714286,14.4 L9.97142857,14.4 Z" id="Shape" fill="#0063d3"></path>
                        </g>
                    </g>
                </g>
            </g>
        </g>
    </g>
</svg>