<svg xmlns="http://www.w3.org/2000/svg" width="25" height="45" viewBox="0 0 25 45"><defs><style>.a{fill:none;}</style></defs><title>ticket-machine--large</title><path class="a" d="M1,35H24V9H1ZM4,12H21V25H4Z"/><path class="a" d="M13.3,4.594,11.833,3.119A.388.388,0,0,0,11.556,3H9.029l-1,1h2.689a1.385,1.385,0,0,1,.978.4L13.17,5.874A.4.4,0,0,0,13.448,6h2.527l1-1H14.28A1.392,1.392,0,0,1,13.3,4.594Z"/><path class="a" d="M5,24H20V13H5Zm12-9h2v1H17Zm0,3h2v1H17Zm0,3h2v1H17Z"/><path class="a" d="M1,1V8H24V1ZM16.387,7H13.449a1.388,1.388,0,0,1-.981-.421L11,5.109A.4.4,0,0,0,10.722,5H8.032l1.993,2H8.616L6.125,4.5,8.616,2h2.94a1.385,1.385,0,0,1,.983.414l1.467,1.472A.4.4,0,0,0,14.281,4H16.97L14.977,2h1.409l2.491,2.5Z"/><path d="M0,0V36H2v9H3V36H22v9h1V36h2V0ZM24,35H1V9H24ZM1,8V1H24V8Z"/><path d="M14.978,2l1.993,2H14.282a.4.4,0,0,1-.275-.114L12.54,2.414A1.391,1.391,0,0,0,11.556,2H8.616L6.125,4.5,8.616,7h1.409L8.032,5h2.69A.394.394,0,0,1,11,5.11l1.471,1.47a1.391,1.391,0,0,0,.981.42h2.938l2.49-2.5L16.387,2Zm1,4H13.448a.4.4,0,0,1-.277-.126L11.7,4.4a1.385,1.385,0,0,0-.978-.4H8.033l1-1h2.527a.387.387,0,0,1,.277.119L13.3,4.594A1.389,1.389,0,0,0,14.281,5h2.691Z"/><path d="M21,12H4V25H21ZM20,24H5V13H20Z"/><rect x="17" y="21" width="2" height="1"/><rect x="17" y="18" width="2" height="1"/><rect x="17" y="15" width="2" height="1"/></svg>