<svg xmlns="http://www.w3.org/2000/svg" width="45.365" height="45.903" viewBox="0 0 45.365 45.903"><defs><style>.a{fill:none;}</style></defs><title>voordeeluren--large</title><rect class="a" x="6" y="16.403" width="7" height="9"/><path class="a" d="M27.087,7.454,25.941,8.729l.638,1.586L25.941,11.9l1.146,1.275-.046,1.708,1.522.811.547,1.621,1.712.253,1.077,1.34,1.695-.344,1.479.894,1.478-.895,1.7.345,1.075-1.341,1.713-.251.547-1.621,1.523-.812-.047-1.706L44.2,11.9l-.64-1.587L44.2,8.73,43.058,7.454,43.1,5.747l-1.522-.812-.547-1.621-1.712-.251-1.077-1.34-1.7.343-1.477-.894-1.479.894-1.7-.343-1.076,1.34-1.713.251-.547,1.622-1.521.811ZM37.532,14.4a1.412,1.412,0,1,1,1.412-1.412A1.413,1.413,0,0,1,37.532,14.4Zm.775-7.7a.235.235,0,0,1,.333.333L31.581,14.1a.235.235,0,1,1-.332-.333Zm-5.951-.3a1.412,1.412,0,1,1-1.412,1.412A1.413,1.413,0,0,1,32.356,6.4Z"/><circle class="a" cx="32.356" cy="7.816" r="0.941"/><circle class="a" cx="37.532" cy="12.992" r="0.941"/><path d="M37.859,22.055a11.883,11.883,0,0,1-1.186.228l6.974,6.974C44,29.612,44,30.35,44,31.283V45.4a.5.5,0,1,0,1,0V31.283c0-1.119,0-2.085-.646-2.734Z"/><path d="M2,10.4a2,2,0,0,0-2,2v19a2,2,0,0,0,2,2H22.916c.549,2.646,1.077,5.173,1.151,5.442a3.772,3.772,0,0,0,1.082,1.914l5,5,.707-.707c-2.272-2.273-4.986-4.987-5.013-5.012a2.8,2.8,0,0,1-.809-1.457c-.123-.448-1.8-8.6-2.438-11.687A2.124,2.124,0,0,1,24.2,24.411a2.3,2.3,0,0,1,2.858,1.624l2.468,7.033a.493.493,0,0,0,.47.33l0,.005h3a2,2,0,0,0,2-2v-9c-.338,0-.669-.023-1-.05V31.4a1,1,0,0,1-1,1H30.354L28,25.7a3.3,3.3,0,0,0-3.983-2.27,3.135,3.135,0,0,0-2.408,3.647c.044.215.554,2.7,1.1,5.327H2a1,1,0,0,1-1-1v-19a1,1,0,0,1,1-1H23.05c-.027-.331-.05-.662-.05-1Z"/><path d="M14,26.4v-11H5v11Zm-8-10h7v9H6Z"/><path d="M18,17.4v1h8.074a12.119,12.119,0,0,1-.807-1Z"/><path d="M20,21.4H30.211a12,12,0,0,1-1.839-1H20Z"/><path d="M27.742,4.24l-1.717.915.052,1.927-1.3,1.442.72,1.792-.72,1.793,1.3,1.442-.052,1.927,1.718.915.615,1.825,1.931.284,1.212,1.51,1.91-.388,1.662,1,1.661-1.006,1.911.389,1.211-1.51,1.931-.284.615-1.825,1.72-.916-.054-1.927,1.3-1.444-.722-1.792.722-1.792-1.3-1.443.052-1.927L42.4,4.236,41.787,2.41l-1.931-.283L38.644.619,36.733,1l-1.66-1L33.411,1,31.5.621,30.289,2.129l-1.932.283Zm1.367-.927,1.713-.251L31.9,1.722l1.7.343,1.479-.894,1.477.894,1.7-.343,1.077,1.34,1.712.251.547,1.621,1.522.812-.046,1.707L44.2,8.729l-.64,1.586L44.2,11.9l-1.146,1.277.047,1.706-1.523.812-.547,1.621-1.713.251L38.247,18.91l-1.7-.345-1.478.895-1.479-.894L31.9,18.91l-1.077-1.34-1.712-.253L28.563,15.7l-1.522-.811.046-1.708L25.941,11.9l.638-1.588-.638-1.586,1.146-1.275-.046-1.708,1.521-.811Z"/><path d="M32.356,9.228a1.412,1.412,0,1,0-1.412-1.412A1.413,1.413,0,0,0,32.356,9.228Zm0-2.353a.941.941,0,1,1-.941.941A.942.942,0,0,1,32.356,6.875Z"/><path d="M37.532,11.58a1.412,1.412,0,1,0,1.412,1.412A1.413,1.413,0,0,0,37.532,11.58Zm0,2.353a.941.941,0,1,1,.941-.941A.942.942,0,0,1,37.532,13.933Z"/><path d="M31.248,13.767a.235.235,0,1,0,.332.333l7.059-7.059a.235.235,0,1,0-.333-.333Z"/></svg>